<svg width="134" height="76" viewBox="0 0 134 76" fill="none" xmlns="http://www.w3.org/2000/svg">
<path d="M20.888 34.709V22.977C20.8867 22.4288 20.9935 21.8857 21.2024 21.3789C21.4113 20.872 21.7181 20.4114 22.1052 20.0233C22.4924 19.6352 22.9523 19.3273 23.4586 19.1172C23.965 18.9071 24.5078 18.799 25.056 18.799C27.791 18.811 27.686 14.584 24.99 14.621H16.71C15.6127 14.621 14.5262 14.8371 13.5124 15.2571C12.4987 15.677 11.5776 16.2925 10.8018 17.0684C10.0259 17.8444 9.4105 18.7656 8.99068 19.7794C8.57086 20.7931 8.35485 21.8797 8.35498 22.977V34.709C10.3363 33.8647 12.4678 33.4295 14.6215 33.4295C16.7752 33.4295 18.9067 33.8647 20.888 34.709Z" fill="white"/>
<path d="M16.71 37.793V56.393C16.733 59.056 12.51 59.073 12.532 56.393V37.793C5.457 39.101 0 46.947 0 56.397C0 66.763 6.559 75.197 14.622 75.197C22.685 75.197 29.244 66.763 29.244 56.397C29.243 46.947 23.786 39.101 16.71 37.793Z" fill="white"/>
<path d="M60.5762 37.599C58.6595 37.6434 56.7763 38.1112 55.0617 38.9689C53.347 39.8266 51.8433 41.0529 50.6582 42.56L58.9452 55.615C59.1409 55.8595 59.3891 56.057 59.6714 56.1926C59.9538 56.3283 60.263 56.3987 60.5762 56.3987C60.8894 56.3987 61.1987 56.3283 61.481 56.1926C61.7633 56.057 62.0115 55.8595 62.2072 55.615L70.4942 42.56C69.3091 41.0529 67.8054 39.8266 66.0907 38.9689C64.3761 38.1112 62.4929 37.6434 60.5762 37.599Z" fill="white"/>
<path d="M36.3828 38.21L40.9118 33.682L36.3828 29.154C34.4218 27.224 37.4998 24.332 39.3368 26.2L45.3418 32.205C45.7335 32.5968 45.9535 33.128 45.9535 33.682C45.9535 34.236 45.7335 34.7673 45.3418 35.159L39.3368 41.164C37.5108 42.97 34.3708 40.157 36.3828 38.21Z" fill="white"/>
<path d="M84.1669 38.21L88.6959 33.682L84.1669 29.153C82.2059 27.221 85.2839 24.332 87.1209 26.199L93.1259 32.204C93.5175 32.5957 93.7376 33.127 93.7376 33.681C93.7376 34.2349 93.5175 34.7662 93.1259 35.158L87.1209 41.163C85.2789 42.987 82.1479 40.181 84.1669 38.21Z" fill="white"/>
<path d="M71.0189 16.7099C71.0189 9.66395 64.8369 3.20994 62.6639 1.16394V18.5569C62.6711 19.0663 62.4957 19.5614 62.1693 19.9525C61.8429 20.3436 61.3873 20.6048 60.8849 20.6889C60.5875 20.7337 60.284 20.7138 59.995 20.6304C59.7061 20.5471 59.4385 20.4023 59.2106 20.2061C58.9828 20.0098 58.8 19.7667 58.6747 19.4933C58.5495 19.2199 58.4847 18.9227 58.4849 18.6219V1.16394C56.3109 3.21394 50.1299 9.66395 50.1299 16.7099C50.1299 23.6809 53.2129 28.1539 58.4849 29.0659V31.3309C58.4849 31.885 58.705 32.4163 59.0967 32.8081C59.4885 33.1999 60.0198 33.4199 60.5739 33.4199C61.1279 33.4199 61.6593 33.1999 62.051 32.8081C62.4428 32.4163 62.6629 31.885 62.6629 31.3309V29.0659C67.9359 28.1539 71.0189 23.6819 71.0189 16.7099Z" fill="white"/>
<path d="M131.595 9.5767e-07H125.329C121.876 0.00297404 118.49 0.956237 115.543 2.75536C112.595 4.55449 110.2 7.13008 108.619 10.2C107.038 7.13008 104.642 4.55449 101.695 2.75536C98.7476 0.956237 95.3619 0.00297404 91.9088 9.5767e-07H85.6428C85.3683 -0.000261847 85.0964 0.0535762 84.8427 0.158441C84.589 0.263305 84.3585 0.417138 84.1643 0.611146C83.9701 0.805154 83.8161 1.03554 83.711 1.28912C83.6059 1.5427 83.5518 1.8145 83.5518 2.089C83.5571 7.07344 85.5395 11.8522 89.064 15.3768C92.5885 18.9013 97.3673 20.8837 102.352 20.889H106.53V31.333C106.53 31.887 106.75 32.4184 107.142 32.8102C107.533 33.2019 108.065 33.422 108.619 33.422C109.173 33.422 109.704 33.2019 110.096 32.8102C110.488 32.4184 110.708 31.887 110.708 31.333V20.888H114.886C119.87 20.8827 124.649 18.9003 128.174 15.3758C131.698 11.8512 133.68 7.07244 133.686 2.088C133.686 1.81358 133.631 1.54189 133.526 1.28842C133.421 1.03496 133.267 0.804697 133.073 0.610795C132.879 0.416893 132.648 0.263151 132.395 0.158349C132.141 0.0535471 131.869 -0.000261798 131.595 9.5767e-07Z" fill="white"/>
<path d="M65.6112 58.046L65.4682 58.224C64.8812 58.9578 64.1366 59.5502 63.2896 59.9573C62.4426 60.3644 61.5149 60.5757 60.5752 60.5757C59.6355 60.5757 58.7078 60.3644 57.8608 59.9573C57.0138 59.5502 56.2693 58.9578 55.6822 58.224L55.5392 58.046L48.1922 46.472C46.695 49.5652 45.9296 52.9615 45.9552 56.398C45.9552 66.764 52.5142 75.198 60.5772 75.198C68.6402 75.198 75.1992 66.764 75.1992 56.398C75.2295 52.9588 74.4649 49.5591 72.9652 46.464L65.6112 58.046Z" fill="white"/>
<path d="M108.618 37.599C106.701 37.6434 104.818 38.1112 103.104 38.9689C101.389 39.8266 99.8853 41.0529 98.7002 42.56L106.987 55.615C107.183 55.8595 107.431 56.057 107.713 56.1926C107.996 56.3283 108.305 56.3987 108.618 56.3987C108.931 56.3987 109.241 56.3283 109.523 56.1926C109.805 56.057 110.053 55.8595 110.249 55.615L118.536 42.56C117.351 41.0529 115.847 39.8266 114.133 38.9689C112.418 38.1112 110.535 37.6434 108.618 37.599Z" fill="white"/>
<path d="M113.654 58.046L113.511 58.224C112.924 58.9578 112.18 59.5502 111.333 59.9573C110.486 60.3644 109.558 60.5757 108.618 60.5757C107.678 60.5757 106.751 60.3644 105.904 59.9573C105.057 59.5502 104.312 58.9578 103.725 58.224L103.582 58.046L96.2352 46.472C94.738 49.5652 93.9726 52.9615 93.9982 56.398C93.9982 66.764 100.557 75.198 108.62 75.198C116.683 75.198 123.242 66.764 123.242 56.398C123.272 52.9588 122.508 49.5591 121.008 46.464L113.654 58.046Z" fill="white"/>
</svg>
