<svg width="134" height="134" viewBox="0 0 134 134" fill="none" xmlns="http://www.w3.org/2000/svg">
<path d="M133.517 88.2945C133.203 86.5997 132.449 85.0174 131.329 83.7065C130.21 82.3955 128.766 81.4021 127.141 80.8261C125.517 80.25 123.769 80.1116 122.074 80.4246C120.379 80.7377 118.797 81.4912 117.485 82.6095L96.43 100.718C95.9965 98.2425 94.7049 95.9992 92.782 94.3817C90.8591 92.7641 88.4278 91.8758 85.915 91.8725H66.041L62.434 89.6655C56.5749 86.0801 49.8391 84.1829 42.97 84.1835H41.887C35.4263 84.1758 29.1445 86.3058 24.021 90.2415V89.8135C24.0194 88.4291 23.4687 87.1018 22.4898 86.1228C21.5108 85.1438 20.1835 84.5931 18.799 84.5915H5.222C3.83683 84.5931 2.50892 85.1444 1.52983 86.1242C0.550745 87.104 0.000528991 88.4324 0 89.8176L0 128.461C0.001588 129.845 0.552271 131.172 1.53124 132.151C2.51021 133.13 3.83753 133.681 5.222 133.683H18.8C19.7154 133.681 20.6145 133.44 21.407 132.981C22.1994 132.523 22.8575 131.864 23.315 131.072H43.342C43.6849 131.072 44.0244 131.004 44.3412 130.873C44.658 130.742 44.9458 130.549 45.1883 130.307C45.4307 130.064 45.623 129.777 45.7542 129.46C45.8855 129.143 45.953 128.803 45.953 128.461C45.953 128.118 45.8855 127.778 45.7542 127.461C45.623 127.145 45.4307 126.857 45.1883 126.614C44.9458 126.372 44.658 126.18 44.3412 126.048C44.0244 125.917 43.6849 125.85 43.342 125.85H24.021V97.3235C26.2792 94.8272 29.0362 92.8326 32.1138 91.4686C35.1913 90.1047 38.5208 89.4019 41.887 89.4055H42.969C48.8765 89.405 54.6693 91.0367 59.708 94.1205L63.943 96.7115C64.3533 96.9626 64.825 97.0955 65.306 97.0955H85.914C87.335 97.0979 88.6989 97.655 89.7151 98.6483C90.7314 99.6416 91.3195 100.992 91.3543 102.413C91.3892 103.834 90.8679 105.212 89.9015 106.253C88.9352 107.295 87.6002 107.919 86.181 107.991H59.1C58.4075 107.991 57.7434 108.266 57.2537 108.755C56.7641 109.245 56.489 109.909 56.489 110.602C56.489 111.294 56.7641 111.958 57.2537 112.448C57.7434 112.937 58.4075 113.213 59.1 113.213L85.919 113.219C86.062 113.219 86.204 113.219 86.344 113.211C88.7119 113.161 90.9888 112.289 92.785 110.746L120.885 86.5785C121.547 86.0184 122.353 85.6558 123.212 85.532C124.07 85.4083 124.946 85.5283 125.739 85.8785C126.421 86.1821 127.018 86.6471 127.48 87.2332C127.942 87.8193 128.255 88.509 128.391 89.2428C128.527 89.9765 128.482 90.7324 128.261 91.4451C128.039 92.1577 127.648 92.8059 127.12 93.3335L102.593 117.874C100.072 120.409 97.0732 122.42 93.7699 123.789C90.4666 125.157 86.9246 125.857 83.349 125.848H66.849C66.1565 125.848 65.4924 126.123 65.0027 126.612C64.5131 127.102 64.238 127.766 64.238 128.459C64.238 129.151 64.5131 129.815 65.0027 130.305C65.4924 130.794 66.1565 131.07 66.849 131.07H83.349C87.6105 131.082 91.8322 130.249 95.7694 128.618C99.7067 126.987 103.281 124.591 106.286 121.57L130.813 97.0305C131.939 95.9039 132.775 94.52 133.247 92.9984C133.72 91.4767 133.815 89.863 133.524 88.2965L133.517 88.2945ZM5.222 128.461V89.8176H18.8V128.461H5.222Z" fill="white"/>
<path d="M16.4501 31.1286L36.0321 42.3126V60.1036C36.0306 60.8477 36.2156 61.5804 36.5702 62.2346C36.9248 62.8888 37.4377 63.4437 38.0621 63.8486L57.8621 76.7396C59.6032 77.8716 61.6353 78.4742 63.7121 78.4742C65.7888 78.4742 67.821 77.8716 69.5621 76.7396L89.3621 63.8486C89.9863 63.4436 90.4991 62.8886 90.8537 62.2345C91.2083 61.5803 91.3934 60.8477 91.3921 60.1036V42.3126L107.068 33.3596V41.7206C105.255 42.2811 103.669 43.407 102.541 44.9337C101.414 46.4604 100.804 48.3077 100.802 50.2056V71.8676C100.802 72.5601 101.077 73.2242 101.567 73.7139C102.056 74.2035 102.721 74.4786 103.413 74.4786H115.946C116.639 74.4786 117.303 74.2035 117.792 73.7139C118.282 73.2242 118.557 72.5601 118.557 71.8676V50.2056C118.555 48.3077 117.946 46.4603 116.818 44.9335C115.691 43.4068 114.104 42.2809 112.291 41.7206V28.8616C112.291 28.4012 112.169 27.949 111.938 27.5509C111.706 27.1528 111.374 26.8229 110.974 26.5946L65.0041 0.343609C64.6094 0.118429 64.1629 0 63.7086 0C63.2542 0 62.8077 0.118429 62.4131 0.343609L16.4501 26.5986C16.0499 26.8267 15.7173 27.1566 15.4859 27.5549C15.2545 27.9531 15.1326 28.4055 15.1326 28.8661C15.1326 29.3267 15.2545 29.7791 15.4859 30.1773C15.7173 30.5756 16.0499 30.9055 16.4501 31.1336V31.1286ZM86.1631 59.6986L66.7091 72.3636C65.8164 72.9446 64.7742 73.2538 63.7091 73.2538C62.644 73.2538 61.6018 72.9446 60.7091 72.3636L41.2541 59.6986V45.2986L62.4141 57.3826C62.8085 57.6079 63.2549 57.7264 63.7091 57.7264C64.1633 57.7264 64.6097 57.6079 65.0041 57.3826L86.1631 45.2986V59.6986ZM113.328 69.2586H106.017V50.2056C106.017 49.2361 106.402 48.3063 107.088 47.6208C107.773 46.9352 108.703 46.5501 109.673 46.5501C110.642 46.5501 111.572 46.9352 112.257 47.6208C112.943 48.3063 113.328 49.2361 113.328 50.2056V69.2586ZM63.7081 5.61761L99.8351 26.2506H71.0021C70.3296 24.5306 69.0707 23.1036 67.448 22.2218C65.8252 21.3401 63.943 21.0603 62.1339 21.432C60.3249 21.8036 58.7054 22.8028 57.5617 24.2529C56.418 25.703 55.8237 27.5107 55.8838 29.3565C55.9439 31.2024 56.6545 32.9676 57.8901 34.3403C59.1257 35.7129 60.8067 36.6046 62.6361 36.8578C64.4655 37.111 66.3255 36.7095 67.8875 35.724C69.4495 34.7386 70.6129 33.2328 71.1721 31.4726H99.8351L63.7081 52.1046L23.0081 28.8616L63.7081 5.61761ZM66.3181 29.0996C66.3181 29.616 66.1649 30.1208 65.878 30.5502C65.5911 30.9796 65.1834 31.3142 64.7063 31.5119C64.2292 31.7095 63.7042 31.7612 63.1977 31.6604C62.6912 31.5597 62.226 31.311 61.8608 30.9459C61.4957 30.5807 61.247 30.1155 61.1462 29.609C61.0455 29.1025 61.0972 28.5775 61.2948 28.1004C61.4924 27.6233 61.8271 27.2155 62.2565 26.9286C62.6859 26.6417 63.1907 26.4886 63.7071 26.4886C64.3992 26.4891 65.0629 26.7643 65.5524 27.2536C66.0419 27.7429 66.3173 28.4065 66.3181 29.0986V29.0996Z" fill="white"/>
<path d="M55.0919 125.85C54.4876 125.849 53.9019 126.059 53.4346 126.442C52.9673 126.825 52.6474 127.359 52.5293 127.951C52.4113 128.544 52.5024 129.159 52.7872 129.692C53.0719 130.225 53.5327 130.643 54.091 130.875C54.6493 131.106 55.2706 131.137 55.8489 130.961C56.4273 130.786 56.9269 130.415 57.2627 129.913C57.5985 129.41 57.7497 128.807 57.6904 128.206C57.6312 127.604 57.3653 127.042 56.9379 126.615C56.4471 126.127 55.7839 125.852 55.0919 125.85Z" fill="white"/>
</svg>
