<svg width="134" height="134" viewBox="0 0 134 134" fill="none" xmlns="http://www.w3.org/2000/svg">
<path d="M120.438 60.398C117.273 60.3981 114.213 61.5331 111.813 63.5971C109.413 65.661 107.833 68.517 107.359 71.6467C106.885 74.7763 107.549 77.9721 109.23 80.654C110.912 83.3358 113.499 85.3259 116.522 86.263V117.203C116.498 119.479 115.577 121.652 113.959 123.253C112.341 124.853 110.157 125.751 107.882 125.751C105.606 125.751 103.422 124.853 101.805 123.253C100.187 121.652 99.2657 119.479 99.2413 117.203V104.192C99.2413 99.823 97.5057 95.6329 94.4163 92.5435C91.3269 89.4541 87.1368 87.7185 82.7678 87.7185C78.3987 87.7185 74.2086 89.4541 71.1192 92.5435C68.0299 95.6329 66.2943 99.823 66.2943 104.192V117.203C66.2698 119.479 65.3487 121.652 63.7309 123.253C62.1132 124.853 59.9294 125.751 57.6538 125.751C55.3781 125.751 53.1944 124.853 51.5766 123.253C49.9589 121.652 49.0377 119.479 49.0133 117.203V89.664C55.3056 88.9263 61.2574 86.4104 66.1711 82.4113C71.0848 78.4121 74.757 73.0954 76.7573 67.084L89.3573 29.321C90.1761 26.8685 90.4002 24.2564 90.0111 21.7002C89.622 19.1441 88.6309 16.717 87.1194 14.6191C85.608 12.5213 83.6195 10.8128 81.318 9.63443C79.0165 8.45611 76.4679 7.84175 73.8823 7.842H64.4873V0H56.6553V23.517H64.4883V15.675H73.8823C75.2262 15.6748 76.551 15.9941 77.7473 16.6065C78.9436 17.2189 79.9773 18.1069 80.763 19.1973C81.5487 20.2876 82.0641 21.5491 82.2665 22.8778C82.4689 24.2064 82.3526 25.5641 81.9273 26.839L69.3273 64.602C67.6309 69.6863 64.3782 74.1082 60.0297 77.2416C55.6811 80.3749 50.4571 82.0609 45.0973 82.0609C39.7374 82.0609 34.5134 80.3749 30.1648 77.2416C25.8163 74.1082 22.5636 69.6863 20.8673 64.602L8.26826 26.839C7.84288 25.5641 7.72661 24.2064 7.92903 22.8778C8.13146 21.5491 8.64678 20.2876 9.43251 19.1973C10.2182 18.1069 11.2519 17.2189 12.4482 16.6065C13.6445 15.9941 14.9693 15.6748 16.3133 15.675H25.7063V23.517H33.5393V0H25.7063V7.842H16.3133C13.7281 7.84196 11.18 8.45631 8.87886 9.63441C6.57776 10.8125 4.58959 12.5206 3.07824 14.618C1.56689 16.7153 0.575636 19.1418 0.186182 21.6974C-0.203273 24.2531 0.0202268 26.8647 0.838257 29.317L13.4363 67.084C15.4367 73.0957 19.1091 78.4126 24.0233 82.4118C28.9374 86.4109 34.8896 88.9266 41.1823 89.664V117.202C41.1823 121.571 42.9178 125.761 46.0071 128.85C49.0964 131.939 53.2863 133.675 57.6553 133.675C62.0242 133.675 66.2141 131.939 69.3034 128.85C72.3927 125.761 74.1283 121.571 74.1283 117.202V104.192C74.1527 101.916 75.0739 99.7425 76.6916 98.1421C78.3093 96.5416 80.4931 95.644 82.7688 95.644C85.0444 95.644 87.2282 96.5416 88.8459 98.1421C90.4637 99.7425 91.3848 101.916 91.4093 104.192V117.203C91.4093 121.572 93.1448 125.762 96.2341 128.851C99.3234 131.94 103.513 133.676 107.882 133.676C112.251 133.676 116.441 131.94 119.53 128.851C122.62 125.762 124.355 121.572 124.355 117.203V86.262C127.379 85.3249 129.966 83.3348 131.647 80.653C133.329 77.9711 133.993 74.7753 133.519 71.6457C133.045 68.516 131.465 65.66 129.065 63.5961C126.665 61.5321 123.605 60.3971 120.439 60.397L120.438 60.398Z" fill="white"/>
</svg>
