<svg width="676" height="460" viewBox="0 0 676 460" fill="none" xmlns="http://www.w3.org/2000/svg">
<path d="M612.629 446.628C612.629 446.628 581.719 381.444 608.896 367.198C636.074 352.952 627.821 400.757 627.821 400.757C627.821 400.757 617.906 436.503 617.622 446.628C617.339 456.752 612.629 446.628 612.629 446.628Z" fill="#ADEAC9"/>
<path d="M615.793 451.233C607.466 403.259 615.72 371.929 615.793 371.624L616.845 371.918C616.76 372.223 608.581 403.333 616.845 451.043L615.793 451.233Z" fill="#50D171"/>
<path d="M611.987 446.123C611.987 446.123 606.636 430.006 593.42 425.001C580.205 419.997 565.033 408.064 572.908 398.497C580.783 388.929 602.43 401.009 609.317 427.63C613.995 445.776 611.987 446.123 611.987 446.123Z" fill="#ADEAC9"/>
<path d="M611.451 446.302C605.395 427.819 597.121 417.011 591.254 411.197C584.946 404.889 579.9 402.954 579.847 402.944L580.247 401.892C580.457 401.966 585.503 403.922 591.99 410.303C597.973 416.201 606.383 427.125 612.523 445.913L611.451 446.302Z" fill="#50D171"/>
<path d="M615.804 448.1C615.804 448.1 621.155 431.993 634.36 426.988C647.565 421.984 662.747 410.051 654.883 400.484C647.018 390.916 625.35 402.986 618.474 429.606C613.795 447.7 615.804 448.1 615.804 448.1Z" fill="#ADEAC9"/>
<path d="M616.34 448.278L615.288 447.931C621.428 429.186 629.85 418.22 635.832 412.311C642.35 405.888 647.397 403.901 647.565 403.901L647.965 404.952C647.733 404.994 627.915 412.921 616.34 448.278Z" fill="#50D171"/>
<path d="M616.287 451.233C616.287 451.233 622.658 441.991 631.963 441.255C641.268 440.519 653.137 435.746 649.836 428.208C646.535 420.67 630.628 424.36 621.355 439.983C615.047 450.612 616.287 451.233 616.287 451.233Z" fill="#ADEAC9"/>
<path d="M616.592 451.443L615.982 451.022C630.06 430.395 644.443 429.017 644.59 429.007L644.653 429.753C641.558 430.244 638.583 431.314 635.885 432.908C631.09 435.494 623.846 440.824 616.592 451.443Z" fill="#50D171"/>
<path d="M616.592 451.443C616.592 451.443 610.221 442.202 600.916 441.466C591.612 440.73 579.742 435.956 583.043 428.418C586.345 420.88 602.241 424.57 611.525 440.193C617.791 450.823 616.592 451.443 616.592 451.443Z" fill="#ADEAC9"/>
<path d="M616.287 451.653C602.43 431.32 588.374 430.006 588.237 430.006V429.259C588.384 429.259 602.767 430.647 616.855 451.275L616.287 451.653Z" fill="#50D171"/>
<path d="M587.848 451.979C587.848 451.979 607.824 433.202 621.397 441.035C621.397 441.035 634.423 432.13 641.551 440.236C641.551 440.236 666.027 439.973 672.335 452.305L587.848 451.979Z" fill="#ADEAC9"/>
<path d="M41.8984 446.628C41.8984 446.628 10.9989 381.444 38.1766 367.198C65.3542 352.952 57.101 400.757 57.101 400.757C57.101 400.757 47.1972 436.503 46.9133 446.628C46.6295 456.752 41.8984 446.628 41.8984 446.628Z" fill="#ADEAC9"/>
<path d="M45.063 451.233C36.7467 403.259 44.9999 371.929 45.063 371.624L46.1143 371.918C46.0407 372.223 37.8506 403.333 46.1143 451.043L45.063 451.233Z" fill="#50D171"/>
<path d="M41.2676 446.123C41.2676 446.123 35.9056 430.006 22.7006 425.001C9.49549 419.997 -5.7387 408.064 2.17804 398.465C10.0948 388.866 31.7107 400.978 38.5866 427.598C43.2651 445.776 41.2676 446.123 41.2676 446.123Z" fill="#ADEAC9"/>
<path d="M40.7208 446.302C34.6965 427.819 26.4013 417.011 20.5242 411.197C14.2161 404.889 9.18007 402.954 9.1275 402.944L9.52702 401.892C9.73729 401.966 14.7838 403.922 21.2602 410.303C27.2424 416.201 35.6638 427.125 41.8037 445.913L40.7208 446.302Z" fill="#50D171"/>
<path d="M45.0735 448.1C45.0735 448.1 50.4354 431.993 63.6405 426.988C76.8455 421.984 92.0797 410.03 84.163 400.484C76.2463 390.937 54.6724 402.986 47.7544 429.606C43.1074 447.7 45.0735 448.1 45.0735 448.1Z" fill="#ADEAC9"/>
<path d="M45.6202 448.278L44.5688 447.931C50.7088 429.186 59.1302 418.22 65.1124 412.311C71.6203 405.888 76.6773 403.901 76.8456 403.901L77.2451 404.952C77.0138 404.994 57.1852 412.921 45.6202 448.278Z" fill="#50D171"/>
<path d="M45.5676 451.233C45.5676 451.233 51.9389 441.991 61.2434 441.255C70.5479 440.519 82.4178 435.746 79.1165 428.208C75.8152 420.67 59.9292 424.36 50.6772 439.983C44.3691 450.612 45.5676 451.233 45.5676 451.233Z" fill="#ADEAC9"/>
<path d="M45.8725 451.443L45.2101 451.033C59.2984 430.405 73.6809 429.028 73.8281 429.017V429.764C70.7365 430.255 67.7652 431.325 65.0703 432.918C60.3707 435.494 53.1269 440.824 45.8725 451.443Z" fill="#50D171"/>
<path d="M45.8725 451.443C45.8725 451.443 39.5013 442.202 30.1967 441.466C20.8922 440.73 9.02238 435.956 12.3236 428.418C15.6249 420.88 31.532 424.57 40.805 440.193C47.0711 450.823 45.8725 451.443 45.8725 451.443Z" fill="#ADEAC9"/>
<path d="M45.5676 451.653C31.6791 431.32 17.654 430.006 17.5173 430.006L17.5699 429.259C17.7171 429.259 32.0997 430.647 46.1879 451.275L45.5676 451.653Z" fill="#50D171"/>
<path d="M17.1284 451.979C17.1284 451.979 37.1042 433.202 50.6772 441.035C50.6772 441.035 63.7036 432.13 70.8318 440.236C70.8318 440.236 95.3074 439.973 101.616 452.305L17.1284 451.979Z" fill="#ADEAC9"/>
<path d="M118.111 50.0447H604.596C606.827 50.0447 608.966 50.9308 610.544 52.5082C612.121 54.0855 613.007 56.2248 613.007 58.4555V80.5341H109.701V58.4555C109.701 56.2248 110.587 54.0855 112.164 52.5082C113.741 50.9308 115.881 50.0447 118.111 50.0447Z" fill="#76DFFF"/>
<path d="M109.701 80.5131H613.007V443.232C613.007 445.463 612.121 447.602 610.544 449.179C608.966 450.757 606.827 451.643 604.596 451.643H118.111C115.881 451.643 113.741 450.757 112.164 449.179C110.587 447.602 109.701 445.463 109.701 443.232V80.5131Z" fill="#E6F6FF"/>
<path d="M588.931 210.787H458.846C457.133 210.787 455.745 212.176 455.745 213.888V291.226C455.745 292.939 457.133 294.328 458.846 294.328H588.931C590.644 294.328 592.032 292.939 592.032 291.226V213.888C592.032 212.176 590.644 210.787 588.931 210.787Z" fill="#76DFFF"/>
<path d="M487.149 258.908C497.879 258.908 506.578 250.209 506.578 239.479C506.578 228.748 497.879 220.049 487.149 220.049C476.418 220.049 467.72 228.748 467.72 239.479C467.72 250.209 476.418 258.908 487.149 258.908Z" fill="#FFAB2F"/>
<path d="M584.273 234.148H514.621V244.819H584.273V234.148Z" fill="white"/>
<path d="M584.263 269.758H467.709V280.429H584.263V269.758Z" fill="white"/>
<path d="M588.931 102.224H458.846C457.133 102.224 455.745 103.612 455.745 105.325V182.663C455.745 184.376 457.133 185.765 458.846 185.765H588.931C590.644 185.765 592.032 184.376 592.032 182.663V105.325C592.032 103.612 590.644 102.224 588.931 102.224Z" fill="#76DFFF"/>
<path d="M487.149 150.344C497.879 150.344 506.578 141.646 506.578 130.915C506.578 120.185 497.879 111.486 487.149 111.486C476.418 111.486 467.72 120.185 467.72 130.915C467.72 141.646 476.418 150.344 487.149 150.344Z" fill="#FFAB2F"/>
<path d="M584.273 125.574H514.621V136.246H584.273V125.574Z" fill="white"/>
<path d="M584.263 161.194H467.709V171.866H584.263V161.194Z" fill="white"/>
<path d="M589.204 327.141H369.754C368.041 327.141 366.653 328.529 366.653 330.242V428.607C366.653 430.32 368.041 431.709 369.754 431.709H589.204C590.917 431.709 592.306 430.32 592.306 428.607V330.242C592.306 328.529 590.917 327.141 589.204 327.141Z" fill="#BBE8FC"/>
<path d="M536.752 374H451.329V384.671H536.752V374Z" fill="white"/>
<path d="M583.401 398.707H451.077V409.378H583.401V398.707Z" fill="white"/>
<path d="M424.782 333.691H387.48C382.457 333.691 378.386 337.76 378.386 342.78C378.386 347.799 382.457 351.869 387.48 351.869H424.782C429.805 351.869 433.876 347.799 433.876 342.78C433.876 337.76 429.805 333.691 424.782 333.691Z" fill="#6ADB97"/>
<path d="M491.228 333.691H453.926C448.903 333.691 444.832 337.76 444.832 342.78C444.832 347.799 448.903 351.869 453.926 351.869H491.228C496.251 351.869 500.322 347.799 500.322 342.78C500.322 337.76 496.251 333.691 491.228 333.691Z" fill="#62B9F9"/>
<path d="M433.162 387.72C432.426 380.698 428.979 374.24 423.553 369.721C418.128 365.203 411.152 362.981 404.113 363.529C397.073 364.077 390.526 367.351 385.865 372.655C381.204 377.958 378.797 384.872 379.157 391.924C379.517 398.975 382.616 405.607 387.794 410.408C392.971 415.209 399.818 417.799 406.877 417.627C413.936 417.454 420.648 414.533 425.585 409.485C430.522 404.437 433.293 397.662 433.309 390.601C433.309 389.623 433.256 388.666 433.162 387.72ZM406.278 407.202C403.119 407.198 400.026 406.293 397.364 404.592C394.701 402.892 392.579 400.467 391.247 397.602C389.914 394.738 389.427 391.552 389.842 388.42C390.257 385.289 391.557 382.34 393.589 379.921C395.621 377.503 398.302 375.714 401.315 374.766C404.329 373.817 407.551 373.748 410.602 374.567C413.653 375.386 416.408 377.059 418.541 379.389C420.675 381.718 422.1 384.609 422.648 387.72C422.818 388.671 422.902 389.635 422.9 390.601C422.902 392.783 422.473 394.944 421.637 396.96C420.802 398.976 419.578 400.808 418.034 402.35C416.49 403.892 414.656 405.114 412.639 405.947C410.622 406.78 408.461 407.206 406.278 407.202Z" fill="#2897FA"/>
<path d="M433.162 387.72H422.648C421.962 383.887 419.949 380.417 416.962 377.918C413.975 375.419 410.204 374.051 406.31 374.052V363.623C412.967 363.63 419.387 366.092 424.342 370.539C429.297 374.985 432.437 381.103 433.162 387.72Z" fill="#F9C82B"/>
<path d="M336.31 102.224H139.917C134.11 102.224 129.403 106.931 129.403 112.737V421.122C129.403 426.928 134.11 431.635 139.917 431.635H336.31C342.117 431.635 346.824 426.928 346.824 421.122V112.737C346.824 106.931 342.117 102.224 336.31 102.224Z" fill="#2897FA"/>
<path d="M314.863 219.471H167.672V238.396H314.863V219.471Z" fill="#62B9F9"/>
<path d="M321.507 317.868H149.368V336.792H321.507V317.868Z" fill="#62B9F9"/>
<path d="M254.504 350.923H149.368V369.847H254.504V350.923Z" fill="#62B9F9"/>
<path d="M293.835 256.426H188.7V275.351H293.835V256.426Z" fill="#62B9F9"/>
<path d="M241.267 204.058C260.94 204.058 276.888 188.111 276.888 168.438C276.888 148.766 260.94 132.818 241.267 132.818C221.595 132.818 205.647 148.766 205.647 168.438C205.647 188.111 221.595 204.058 241.267 204.058Z" fill="#E6F6FF"/>
<path d="M147.697 70.5462C150.6 70.5462 152.953 68.1926 152.953 65.2894C152.953 62.3861 150.6 60.0326 147.697 60.0326C144.793 60.0326 142.44 62.3861 142.44 65.2894C142.44 68.1926 144.793 70.5462 147.697 70.5462Z" fill="#2898FB"/>
<path d="M127.668 70.5462C130.571 70.5462 132.925 68.1926 132.925 65.2894C132.925 62.3861 130.571 60.0326 127.668 60.0326C124.765 60.0326 122.411 62.3861 122.411 65.2894C122.411 68.1926 124.765 70.5462 127.668 70.5462Z" fill="#78C2FF"/>
<path d="M485.498 55.3225H191.118C185.311 55.3225 180.604 60.0296 180.604 65.8361C180.604 71.6426 185.311 76.3497 191.118 76.3497H485.498C491.305 76.3497 496.012 71.6426 496.012 65.8361C496.012 60.0296 491.305 55.3225 485.498 55.3225Z" fill="white"/>
<path d="M604.449 64.7847C604.449 66.8641 603.832 68.8968 602.677 70.6257C601.522 72.3547 599.88 73.7022 597.959 74.498C596.038 75.2937 593.924 75.502 591.884 75.0963C589.845 74.6906 587.971 73.6893 586.501 72.2189C585.031 70.7486 584.029 68.8752 583.624 66.8358C583.218 64.7964 583.426 62.6824 584.222 60.7613C585.018 58.8402 586.365 57.1982 588.094 56.043C589.823 54.8877 591.856 54.2711 593.935 54.2711C596.724 54.2711 599.398 55.3788 601.37 57.3505C603.341 59.3222 604.449 61.9963 604.449 64.7847Z" fill="#CAF0F9"/>
<path d="M593.935 63.9121C595.567 63.9121 596.89 62.5894 596.89 60.9578C596.89 59.3262 595.567 58.0035 593.935 58.0035C592.304 58.0035 590.981 59.3262 590.981 60.9578C590.981 62.5894 592.304 63.9121 593.935 63.9121Z" fill="#78C2FF"/>
<path d="M600.244 69.5159V73.1851C598.424 74.55 596.21 75.2878 593.935 75.2878C591.661 75.2878 589.447 74.55 587.627 73.1851V69.5159C587.627 68.4005 588.07 67.3308 588.859 66.5422C589.648 65.7535 590.717 65.3104 591.833 65.3104H596.038C597.153 65.3104 598.223 65.7535 599.012 66.5422C599.8 67.3308 600.244 68.4005 600.244 69.5159Z" fill="#78C2FF"/>
<path d="M622.837 211.502C624.684 215.52 627.987 218.687 632.079 220.365C638.692 222.867 634.444 229.364 634.444 229.364C634.444 229.364 637.819 234.485 633.572 236.608C629.324 238.732 627.2 238.48 626.212 238.227C626.212 238.227 623.962 245.471 613.354 241.381C602.746 237.292 611.356 230.868 611.356 230.868C611.356 230.868 606.941 224.381 613.386 217.715C613.386 217.715 615.131 215.455 614.605 210.451" fill="#070707"/>
<path d="M646.114 293.991C646.304 290.732 641.383 286.432 642.96 282.889C646.387 275.487 650.249 268.293 654.525 261.347C655.272 255.985 646.24 245.093 641.078 243.474L628.714 240.898C626.547 240.225 624.226 240.225 622.059 240.898L614.794 244.515C609.622 246.144 603.124 252.284 603.871 257.646C603.871 257.646 608.844 292.772 618.59 303.401L646.114 293.991Z" fill="#E8878B"/>
<path d="M625.56 250.223C626.471 250.224 627.371 250.033 628.204 249.663C629.036 249.294 629.782 248.753 630.392 248.078C631.002 247.402 631.464 246.605 631.747 245.74C632.031 244.874 632.129 243.959 632.037 243.053L630.439 227.461C630.316 226.252 629.75 225.131 628.849 224.316C627.947 223.5 626.776 223.047 625.56 223.046C624.343 223.045 623.169 223.496 622.265 224.312C621.362 225.128 620.794 226.25 620.671 227.461L619.084 243.053C618.991 243.959 619.09 244.874 619.373 245.74C619.656 246.605 620.118 247.402 620.728 248.078C621.339 248.753 622.084 249.294 622.917 249.663C623.749 250.033 624.65 250.224 625.56 250.223Z" fill="#E8878B"/>
<path d="M619.585 225.648C620.119 223.868 619.109 221.992 617.329 221.458C615.55 220.924 613.674 221.934 613.14 223.714C612.606 225.494 613.616 227.369 615.396 227.903C617.175 228.437 619.051 227.427 619.585 225.648Z" stroke="white" stroke-width="0.5" stroke-miterlimit="10"/>
<path d="M619.42 239.857C619.42 239.857 628.883 239.857 630.743 230.29L620.682 227.482L619.42 239.857Z" fill="#D6656D"/>
<path d="M625.56 233.77H625.571C631.337 233.77 636.011 229.096 636.011 223.33V213.92C636.011 208.154 631.337 203.48 625.571 203.48H625.56C619.794 203.48 615.12 208.154 615.12 213.92V223.33C615.12 229.096 619.794 233.77 625.56 233.77Z" fill="#E8878B"/>
<path d="M631.101 213.426C631.101 213.426 630.113 211.649 622.375 211.397C622.375 211.397 616.876 215.897 613.627 210.146C610.379 204.395 619.589 191.799 625.497 201.535C625.497 201.535 630.901 199.485 637.356 203.28C640.395 205.18 642.655 208.103 643.728 211.523C645.578 215.538 648.88 218.705 652.969 220.386C659.593 222.888 655.345 229.385 655.345 229.385C655.345 229.385 658.72 234.506 654.473 236.629C650.225 238.753 648.101 238.501 647.113 238.248C647.113 238.248 644.863 245.492 634.244 241.402C623.626 237.313 632.247 230.889 632.247 230.889C632.247 230.889 626.811 226.515 633.183 223.025C633.172 222.993 632.773 215.718 631.101 213.426Z" fill="#070707"/>
<path d="M633.235 222.825C634.644 222.825 635.79 220.964 635.79 219.471C635.79 217.978 634.644 217.432 633.235 217.432V222.825Z" fill="#E8878B"/>
<path d="M634.655 219.177C634.36 219.402 634.127 219.696 633.974 220.034C633.822 220.372 633.756 220.742 633.782 221.111C634.038 220.937 634.347 220.859 634.655 220.89" stroke="#B73D46" stroke-width="0.3" stroke-miterlimit="10"/>
<path d="M623.689 218.809C623.689 218.809 623.226 223.014 622.637 223.803C622.049 224.591 624.162 224.339 624.162 224.339" stroke="#B73D46" stroke-width="0.3" stroke-miterlimit="10"/>
<path d="M625.392 227.872C624.647 228.223 623.834 228.406 623.011 228.406C622.187 228.406 621.374 228.223 620.629 227.872" stroke="#B73D46" stroke-width="0.3" stroke-miterlimit="10"/>
<path d="M617.444 219.345C617.961 219.345 618.379 218.926 618.379 218.409C618.379 217.893 617.961 217.474 617.444 217.474C616.927 217.474 616.508 217.893 616.508 218.409C616.508 218.926 616.927 219.345 617.444 219.345Z" fill="#070707"/>
<path d="M619.673 217.158L620.009 216.748C619.253 216.118 618.306 215.764 617.322 215.743C616.338 215.722 615.377 216.035 614.595 216.632L614.931 217.043C615.613 216.511 616.458 216.232 617.322 216.253C618.187 216.274 619.017 216.594 619.673 217.158Z" fill="#070707"/>
<path d="M628.336 219.576C628.853 219.576 629.272 219.157 629.272 218.641C629.272 218.124 628.853 217.705 628.336 217.705C627.819 217.705 627.4 218.124 627.4 218.641C627.4 219.157 627.819 219.576 628.336 219.576Z" fill="#070707"/>
<path d="M630.565 217.389L630.901 216.979C630.147 216.35 629.2 215.997 628.218 215.978C627.235 215.959 626.276 216.275 625.497 216.874L625.823 217.284C626.504 216.752 627.348 216.471 628.213 216.49C629.077 216.509 629.908 216.827 630.565 217.389Z" fill="#070707"/>
<path d="M634.518 224.644C634.518 224.644 631.595 228.092 634.444 229.364" stroke="white" stroke-width="0.5" stroke-miterlimit="10"/>
<path d="M652.769 233.77C652.769 233.77 651.886 237.05 646.461 235.767" stroke="white" stroke-width="0.5" stroke-miterlimit="10"/>
<path d="M614.595 234.327C614.595 234.327 610.557 236.892 616.319 239.952" stroke="white" stroke-width="0.5" stroke-miterlimit="10"/>
<path d="M630.767 211.726C631.458 209.423 630.152 206.997 627.849 206.306C625.547 205.615 623.12 206.922 622.429 209.224C621.739 211.527 623.045 213.953 625.348 214.644C627.65 215.335 630.077 214.028 630.767 211.726Z" fill="#070707"/>
<path d="M612.481 268.832L578.964 297.997C576.136 300.468 572.267 301.225 569.691 298.481C569.059 297.805 568.568 297.011 568.245 296.145C567.923 295.278 567.775 294.356 567.812 293.432C567.848 292.508 568.067 291.6 568.456 290.761C568.846 289.923 569.398 289.169 570.08 288.545L606.205 255.711L612.481 268.832Z" fill="#E8878B"/>
<path d="M587.112 273.08C587.112 273.08 588.374 280.681 594.272 284.645L599.171 280.387L590.949 269.558L587.112 273.08Z" fill="#D6656D"/>
<path d="M567.483 265.226L580.793 290.175L568.398 296.41L559.009 269.074C558.725 268.214 558.747 267.281 559.072 266.435C559.453 265.354 560.109 264.39 560.975 263.639C561.964 262.871 563.625 263.018 564.907 263.302C565.449 263.421 565.959 263.654 566.403 263.986C566.848 264.318 567.216 264.741 567.483 265.226Z" fill="#E8878B"/>
<path d="M567.62 264.585C567.654 265.16 567.786 265.725 568.009 266.257L569.838 270.63C569.838 270.63 570.543 272.397 566.495 274.047C562.447 275.698 562.079 274.205 562.079 274.205L556.56 265.037L555.393 263.334C554.662 262.281 554.217 261.056 554.099 259.78L553.595 254.408C553.557 254.087 553.628 253.763 553.795 253.487C553.963 253.211 554.218 252.998 554.52 252.883C555.119 252.673 555.929 252.883 556.759 254.355C558.42 257.394 557.59 259.107 561.942 259.612C563.027 259.18 564.195 258.996 565.359 259.076C565.791 259.119 566.204 259.277 566.553 259.534C566.903 259.791 567.177 260.138 567.346 260.537L567.62 264.585Z" fill="#E8878B"/>
<path d="M558.105 247.5C558.17 247.414 558.256 247.347 558.356 247.305C558.455 247.264 558.564 247.249 558.67 247.263C558.777 247.277 558.879 247.319 558.964 247.384C559.049 247.45 559.116 247.537 559.156 247.637C559.321 248.023 559.399 248.441 559.384 248.861C559.37 249.28 559.263 249.692 559.072 250.066C558.179 252.168 557.338 253.567 558.116 256.374C558.894 259.181 560.071 261.988 560.071 261.988L557.558 261.01C557.558 261.01 554.909 257.646 554.983 254.124C554.993 251.369 557.127 248.625 558.105 247.5Z" fill="#E8878B"/>
<path d="M564.823 263.145C566.246 263.145 567.399 261.991 567.399 260.569C567.399 259.146 566.246 257.993 564.823 257.993C563.401 257.993 562.247 259.146 562.247 260.569C562.247 261.991 563.401 263.145 564.823 263.145Z" fill="#E8878B"/>
<path d="M562.405 252.789L564.182 254.219C564.712 254.648 565.139 255.19 565.433 255.806L567.252 259.728L562.521 259.412C562.521 259.412 563.246 257.656 562.237 256.679C561.495 255.866 560.99 254.866 560.775 253.787C560.751 253.588 560.785 253.385 560.873 253.204C560.96 253.023 561.098 252.871 561.27 252.765C561.442 252.66 561.64 252.606 561.841 252.611C562.042 252.615 562.238 252.677 562.405 252.789Z" fill="#E8878B"/>
<path d="M560.071 246.628C560.159 246.578 560.258 246.551 560.358 246.549C560.459 246.548 560.559 246.572 560.648 246.619C560.737 246.666 560.813 246.735 560.868 246.819C560.923 246.904 560.957 247 560.965 247.101C560.991 247.519 560.924 247.937 560.77 248.326C560.615 248.715 560.377 249.065 560.071 249.351C558.505 251.054 557.243 252.063 557.043 254.912C556.918 256.89 556.894 258.873 556.97 260.853L554.941 259.076C554.941 259.076 553.584 255.018 554.856 251.716C555.824 249.172 558.757 247.353 560.071 246.628Z" fill="#E8878B"/>
<path d="M558.746 245.86C558.828 245.802 558.924 245.766 559.024 245.754C559.123 245.742 559.225 245.756 559.318 245.794C559.411 245.831 559.493 245.892 559.557 245.97C559.621 246.047 559.664 246.14 559.682 246.239C559.748 246.654 559.721 247.079 559.603 247.483C559.485 247.886 559.278 248.259 558.999 248.573C557.59 250.402 556.433 251.527 556.486 254.387C556.543 256.367 556.701 258.342 556.959 260.306L554.005 258.802C554.005 258.802 553.164 254.103 554.005 251.443C554.846 248.783 557.506 246.691 558.746 245.86Z" fill="#E8878B"/>
<path d="M610.925 245.944C610.925 245.944 604.985 247.29 589.026 270.777C589.026 270.777 591.202 281.806 600.79 284.782C600.79 284.782 611.777 278.242 615.898 271.24" fill="#FFAB2F"/>
<path d="M602.872 283.793C593.052 279.42 590.624 269.2 590.518 268.769L591.57 268.538C591.57 268.643 593.988 278.673 603.314 282.826L602.872 283.793Z" fill="white"/>
<path d="M576.725 282.511L575.999 285.223" stroke="black" stroke-width="0.3" stroke-miterlimit="10"/>
<path d="M630.134 458.003H596.564C596.038 454.849 598.277 454.187 598.277 454.187C604.009 452.925 609.353 450.304 613.859 446.544C618.411 443.053 618.201 435.084 618.201 435.084H629.618L630.134 458.003Z" fill="#E8878B"/>
<path d="M598.277 454.187C599.794 453.86 601.293 453.453 602.767 452.967C604.897 452.185 606.94 451.184 608.865 449.982C611.84 451.653 620.083 453.977 630.165 455.238V457.972H596.564C596.038 454.839 598.277 454.187 598.277 454.187Z" fill="#1C3D4F"/>
<path d="M596.49 458.003V459.36H629.524L629.85 458.003H596.49Z" fill="#FFF3F3"/>
<path d="M618.201 435.084L616.224 395.132C616.273 393.721 616.869 392.384 617.885 391.403C618.901 390.422 620.258 389.875 621.67 389.875C622.419 389.876 623.159 390.031 623.846 390.331C624.532 390.63 625.149 391.068 625.659 391.616C626.169 392.165 626.56 392.812 626.809 393.518C627.058 394.224 627.159 394.974 627.106 395.721L629.608 435.021C629.608 435.021 626.664 437.954 623.584 437.765C621.537 437.509 619.638 436.563 618.201 435.084Z" fill="#E8878B"/>
<path d="M621.355 412.28C624.398 413.725 627.744 414.417 631.111 414.298L631.532 408.527L621.565 407.202L621.355 412.28Z" fill="#DD7A81"/>
<path d="M606.541 290.617C606.541 290.617 598.688 308.385 602.115 332.114C602.683 345.781 607.708 387.194 612.481 422.467H632.457C631.406 406.382 630.849 380.224 627.001 365.095C622.606 347.811 623.847 338.411 625.234 333.901C625.804 332.827 626.303 331.718 626.727 330.579C626.769 330.52 626.814 330.463 626.864 330.411V330.337C631.816 316.974 627.915 299.353 627.915 299.353C621.428 291.132 615.12 288.903 610.105 288.987" fill="#64C3F9"/>
<path d="M618.358 323.335L617.433 361.184L619.284 386.311L626.475 422.467H629.629L628.683 403.543L625.013 386.658L621.26 332.114C621.26 332.114 621.754 325.448 618.358 323.335Z" fill="#41B1D8"/>
<path d="M647.313 458.003H613.743C613.217 454.849 615.457 454.187 615.457 454.187C621.187 452.923 626.531 450.302 631.038 446.544C635.59 443.053 635.38 435.084 635.38 435.084H646.798L647.313 458.003Z" fill="#E8878B"/>
<path d="M615.457 454.187C616.973 453.859 618.472 453.452 619.946 452.967C622.075 452.183 624.118 451.182 626.044 449.982C629.019 451.653 637.262 453.977 647.334 455.238V457.972H613.743C613.217 454.839 615.457 454.187 615.457 454.187Z" fill="#1C3D4F"/>
<path d="M613.659 458.003V459.36H646.692L647.029 458.003H613.659Z" fill="#FFF3F3"/>
<path d="M635.38 435.084L633.403 395.132C633.452 393.721 634.048 392.384 635.064 391.403C636.08 390.422 637.437 389.875 638.849 389.875C639.599 389.875 640.34 390.029 641.027 390.328C641.714 390.627 642.332 391.064 642.842 391.613C643.352 392.162 643.743 392.81 643.992 393.516C644.24 394.223 644.34 394.974 644.285 395.721L646.798 435.021C646.798 435.021 643.854 437.954 640.773 437.765C638.722 437.515 636.818 436.568 635.38 435.084Z" fill="#E8878B"/>
<path d="M638.555 412.28C641.603 413.722 644.952 414.414 648.322 414.298L648.743 408.527L638.776 407.202L638.555 412.28Z" fill="#DD7A81"/>
<path d="M610.904 308.153L613.091 315.891C613.091 315.891 603.009 314.503 617.433 317.111C618.295 322.977 619.21 328.402 619.284 332.114C618.569 344.846 624.877 387.194 629.661 422.467H649.636L645.137 330.411L645.042 299.353C645.042 299.353 640.153 296.462 616.571 292.898" fill="#64C3F9"/>
<path d="M638.618 242.948C638.618 242.948 632.079 260.306 619.052 259.549C619.052 259.549 610.526 257.762 613.543 244.956L610.074 246.249C610.074 246.249 593.252 274.783 611.893 297.766C615.426 301.19 619.926 303.445 624.784 304.225C629.641 305.006 634.621 304.274 639.049 302.129L645.305 299.101C645.305 299.101 645.757 289.492 646.766 287.231C647.775 284.971 658.394 258.624 648.595 246.565C645.613 244.566 642.188 243.324 638.618 242.948Z" fill="#FFAB2F"/>
<path d="M604.764 295.674C604.764 295.674 614.027 303.338 625.234 304.263L609.464 281.438C607.646 286.096 606.077 290.848 604.764 295.674Z" fill="#FFAB2F"/>
<path d="M603.997 298.66C609.241 302.727 615.325 305.575 621.807 306.997C632.489 309.299 645.031 302.939 645.031 302.939" stroke="black" stroke-width="0.3" stroke-miterlimit="10"/>
<path d="M604.891 284.782C604.891 284.782 600.359 273.753 605.616 256.752" stroke="black" stroke-width="0.3" stroke-miterlimit="10"/>
<path d="M661.79 266.751L675.069 309.152C676.204 312.737 675.342 316.575 671.799 317.836C670.927 318.144 670.002 318.276 669.079 318.224C668.155 318.172 667.251 317.937 666.419 317.534C665.587 317.13 664.843 316.565 664.231 315.871C663.618 315.178 663.15 314.37 662.852 313.494L647.26 267.234L661.79 266.751Z" fill="#E8878B"/>
<path d="M654.515 288.367C654.515 288.367 661.979 290.27 667.962 286.443L666.027 280.261L652.801 283.415L654.515 288.367Z" fill="#D6656D"/>
<path d="M643.086 297.209L670.422 304.274L666.626 317.615L640.153 306.051C639.322 305.685 638.648 305.037 638.25 304.221C637.71 303.21 637.446 302.076 637.483 300.93C637.588 299.679 638.818 298.554 639.901 297.776C640.36 297.459 640.882 297.245 641.432 297.147C641.981 297.049 642.546 297.07 643.086 297.209Z" fill="#E8878B"/>
<path d="M643.486 243.726C643.486 243.726 664.082 249.456 669.97 283.11C669.97 283.11 659.729 289.597 652.454 285.454C652.454 285.454 647.145 272.575 643.339 267.182" fill="#FFAB2F"/>
<path d="M647.807 275.162L643.339 267.182" stroke="black" stroke-width="0.3" stroke-miterlimit="10"/>
<path d="M655.282 284.403C654.055 284.404 652.829 284.323 651.613 284.161L651.75 283.11C657.665 283.837 663.658 282.678 668.876 279.798L669.433 280.692C665.116 283.129 660.24 284.408 655.282 284.403Z" fill="white"/>
<path d="M639.669 295.863C640.278 295.923 640.866 296.115 641.392 296.425C641.919 296.736 642.371 297.157 642.718 297.661L643.307 298.512C643.755 299.163 644.07 299.895 644.234 300.668C644.398 301.441 644.408 302.238 644.264 303.014C644.119 303.791 643.823 304.531 643.392 305.193C642.961 305.855 642.403 306.425 641.751 306.871L639.344 307.638C639.344 307.638 629.198 301.982 631.606 301.898C635.748 301.75 638.061 301.603 638.061 301.603" fill="#E8878B"/>
<path d="M641.804 306.303C641.804 306.303 630.144 305.672 632.342 304.642C640.321 300.825 634.865 300.079 634.865 300.079C633.617 299.948 632.393 299.647 631.227 299.185C631.141 299.141 631.066 299.08 631.004 299.006C630.943 298.932 630.897 298.846 630.869 298.754C630.842 298.661 630.833 298.565 630.844 298.469C630.855 298.373 630.885 298.281 630.933 298.197L631.059 297.966C631.214 297.692 631.465 297.486 631.763 297.387C633.246 296.925 634.718 296.473 636.852 295.632C637.423 295.413 638.035 295.321 638.645 295.363C639.255 295.404 639.849 295.579 640.384 295.873L641.289 296.368C642.684 297.139 643.716 298.433 644.157 299.965C644.599 301.496 644.414 303.141 643.644 304.537L641.804 306.303Z" fill="#E8878B"/>
<path d="M626.307 301.835C626.307 301.835 629.187 309.941 639.344 307.638L640.037 301.414L626.307 301.835Z" fill="#E8878B"/>
<path d="M659.361 301.414L661.391 303.401" stroke="black" stroke-width="0.3" stroke-miterlimit="10"/>
<path d="M606.962 299.364H638.24C638.518 299.364 638.786 299.475 638.983 299.672C639.18 299.869 639.291 300.136 639.291 300.415V300.689C639.291 300.967 639.18 301.235 638.983 301.432C638.786 301.629 638.518 301.74 638.24 301.74H606.962V299.343V299.364Z" fill="#7988BF"/>
<path d="M565.107 272.985H600.717C600.953 272.977 601.185 273.048 601.375 273.187C601.566 273.326 601.704 273.525 601.768 273.753L609.727 301.74H572.277L564.098 274.321C564.054 274.165 564.047 274.001 564.077 273.841C564.107 273.682 564.174 273.532 564.271 273.403C564.369 273.273 564.495 273.169 564.64 273.096C564.785 273.024 564.945 272.986 565.107 272.985Z" fill="#A0BAEA"/>
<path d="M563.74 272.985H599.35C599.586 272.977 599.818 273.048 600.009 273.187C600.199 273.326 600.338 273.525 600.401 273.753L608.36 301.74H571.699C571.465 301.749 571.234 301.68 571.043 301.543C570.852 301.405 570.713 301.208 570.648 300.983L562.689 274.321C562.644 274.161 562.638 273.993 562.67 273.831C562.702 273.668 562.773 273.516 562.875 273.386C562.978 273.255 563.109 273.151 563.26 273.082C563.41 273.012 563.575 272.979 563.74 272.985Z" fill="#B8CAFC"/>
<path d="M584.326 291.71C586.503 291.71 588.269 289.945 588.269 287.767C588.269 285.59 586.503 283.825 584.326 283.825C582.149 283.825 580.383 285.59 580.383 287.767C580.383 289.945 582.149 291.71 584.326 291.71Z" fill="white"/>
<path d="M139.959 150.597C181.545 150.597 215.257 116.884 215.257 75.2983C215.257 33.7122 181.545 0 139.959 0C98.3725 0 64.6603 33.7122 64.6603 75.2983C64.6603 116.884 98.3725 150.597 139.959 150.597Z" fill="#FAB6D8"/>
<path d="M143.092 31.8982C143.092 31.8982 149.663 19.2819 163.362 29.9743C177.061 40.6666 173.476 57.0993 173.476 57.0993C173.476 57.0993 171.825 68.6643 184.704 68.3383C197.584 68.0124 209.369 70.2518 208.549 82.3109C208.549 82.8261 208.455 83.3623 208.392 83.8143C207.183 92.3619 198.929 98.1444 190.413 97.051L186.649 96.5778C184.34 96.2825 181.994 96.5912 179.84 97.4739C177.685 98.3566 175.797 99.7831 174.359 101.614L170.248 106.871C168.251 109.413 165.405 111.151 162.232 111.769C159.059 112.387 155.769 111.842 152.964 110.235L115.115 88.5244C112.066 86.8172 109.808 83.9828 108.825 80.6295C107.842 77.2762 108.213 73.6712 109.858 70.5882C111.816 67.1398 114.565 64.2064 117.88 62.0302C130.759 53.2619 126.922 42.3067 126.922 42.3067C126.922 42.3067 125.271 25.8634 143.092 31.8982Z" fill="black"/>
<path d="M155.676 91.6259L185.724 117.752C188.269 119.971 191.728 120.643 194.03 118.183C194.599 117.579 195.042 116.868 195.333 116.091C195.624 115.314 195.757 114.487 195.725 113.658C195.692 112.829 195.495 112.015 195.145 111.263C194.794 110.511 194.297 109.836 193.683 109.278L161.301 79.8402L155.676 91.6259Z" fill="#E8878B"/>
<path d="M178.417 95.4318C178.417 95.4318 177.292 102.245 171.994 105.777L167.609 101.982L174.969 92.2778L178.417 95.4318Z" fill="#D6656D"/>
<path d="M196.017 88.3877L184.084 110.708L195.197 116.301L203.608 91.7941C203.887 91.0303 203.887 90.1924 203.608 89.4286C203.264 88.4516 202.661 87.5867 201.863 86.9264C200.98 86.2325 199.487 86.3586 198.341 86.6215C197.849 86.7307 197.386 86.9452 196.985 87.2501C196.584 87.555 196.254 87.9431 196.017 88.3877Z" fill="#E8878B"/>
<path d="M157.579 70.441C157.579 70.441 162.405 72.3545 176.704 93.4027C176.704 93.4027 174.748 103.296 166.19 106.019C166.19 106.019 156.339 100.152 152.638 93.8758" fill="white"/>
<path d="M187.732 103.885L188.384 106.313" stroke="black" stroke-width="0.3" stroke-miterlimit="10"/>
<path d="M207.182 90.3223L206.562 79.63L201.368 81.3437C201.471 80.029 201.397 78.7065 201.148 77.4116C201.118 77.3149 201.069 77.2252 201.004 77.148C200.939 77.0708 200.858 77.0076 200.768 76.9624C200.677 76.9172 200.579 76.8908 200.478 76.8849C200.377 76.879 200.276 76.8936 200.18 76.928L199.918 77.0121C199.602 77.1174 199.339 77.3393 199.182 77.6324C198.425 79.0727 197.668 80.5026 196.385 82.5422C196.047 83.0882 195.834 83.7018 195.759 84.3394C195.685 84.9771 195.751 85.6233 195.954 86.2325L196.29 87.2838C196.55 88.0722 196.962 88.8016 197.504 89.4304C198.045 90.0591 198.706 90.5748 199.447 90.9479C200.188 91.321 200.996 91.5441 201.823 91.6045C202.651 91.665 203.483 91.5615 204.27 91.3L207.182 90.3223Z" fill="#E8878B"/>
<path d="M212.75 72.9679L205.68 70.0638C204.815 69.7087 203.826 70.1217 203.471 70.9865L196.145 88.8225C195.79 89.6872 196.203 90.6761 197.068 91.0313L204.138 93.9354C205.003 94.2905 205.992 93.8775 206.347 93.0127L213.673 75.1767C214.028 74.312 213.615 73.323 212.75 72.9679Z" fill="#60B1F4"/>
<path d="M203.073 70.4173L195.467 88.9341C195.189 89.6108 195.512 90.3848 196.189 90.6627L203.94 93.8464C204.617 94.1244 205.391 93.8011 205.669 93.1243L213.274 74.6076C213.552 73.9308 213.229 73.1569 212.552 72.8789L204.801 69.6952C204.125 69.4173 203.351 69.7406 203.073 70.4173Z" fill="#C0E6FF"/>
<path d="M203.302 70.5585L196.631 86.7995C196.402 87.3581 196.668 87.997 197.227 88.2264L204.9 91.3781C205.459 91.6075 206.098 91.3407 206.327 90.7821L212.998 74.541C213.227 73.9825 212.961 73.3436 212.402 73.1142L204.729 69.9625C204.17 69.7331 203.531 69.9999 203.302 70.5585Z" fill="white"/>
<path d="M213.38 75.181L213.37 75.177C213.279 75.1395 213.174 75.1831 213.137 75.2744L212.685 76.3733C212.648 76.4647 212.691 76.5691 212.783 76.6066L212.792 76.6106C212.884 76.6481 212.988 76.6045 213.026 76.5132L213.477 75.4142C213.515 75.3229 213.471 75.2185 213.38 75.181Z" fill="#C0E6FF"/>
<path d="M200.244 91.8047C200.743 91.8047 201.148 91.3999 201.148 90.9005C201.148 90.4011 200.743 89.9963 200.244 89.9963C199.744 89.9963 199.339 90.4011 199.339 90.9005C199.339 91.3999 199.744 91.8047 200.244 91.8047Z" fill="#60B1F4"/>
<path d="M209.999 72.6143L207.5 71.5877C207.43 71.559 207.351 71.5902 207.324 71.6573C207.296 71.7245 207.33 71.8021 207.4 71.8308L209.899 72.8574C209.969 72.8861 210.048 72.8549 210.076 72.7878C210.103 72.7206 210.069 72.643 209.999 72.6143Z" fill="#60B1F4"/>
<path d="M207.155 71.5868C207.182 71.5199 207.15 71.4433 207.083 71.4158C207.016 71.3883 206.94 71.4203 206.912 71.4872C206.885 71.5542 206.917 71.6307 206.984 71.6582C207.051 71.6857 207.127 71.6537 207.155 71.5868Z" fill="#60B1F4"/>
<path d="M205.153 83.2676C205.18 82.9721 205.319 82.6981 205.543 82.5024C205.766 82.3067 206.055 82.2043 206.352 82.2163L211.209 82.374C211.395 82.3802 211.577 82.4246 211.745 82.5043C211.913 82.584 212.063 82.6974 212.185 82.8374C212.307 82.9774 212.4 83.141 212.456 83.3181C212.512 83.4952 212.532 83.682 212.513 83.8669C212.496 84.0444 212.444 84.2167 212.36 84.3741C212.276 84.5315 212.162 84.6708 212.025 84.7841C211.887 84.8974 211.728 84.9824 211.558 85.0343C211.387 85.0861 211.208 85.1039 211.03 85.0865L206.194 84.5188C206.043 84.507 205.896 84.465 205.761 84.3953C205.626 84.3255 205.507 84.2295 205.41 84.1129C205.313 83.9963 205.24 83.8614 205.196 83.7162C205.152 83.571 205.137 83.4185 205.153 83.2676Z" fill="#E8878B"/>
<path d="M205.395 85.3809C205.427 85.0984 205.566 84.8387 205.782 84.655C205.999 84.4713 206.278 84.3774 206.562 84.3926L210.536 84.6134C210.716 84.6223 210.891 84.6679 211.053 84.7474C211.214 84.8268 211.357 84.9385 211.473 85.0754C211.589 85.2124 211.676 85.3717 211.729 85.5436C211.781 85.7155 211.797 85.8963 211.777 86.0748C211.76 86.2481 211.709 86.4164 211.627 86.5699C211.544 86.7235 211.433 86.8593 211.298 86.9697C211.163 87.08 211.008 87.1627 210.841 87.213C210.674 87.2633 210.499 87.2802 210.326 87.2628L206.383 86.6425C206.234 86.6284 206.089 86.5841 205.958 86.5121C205.826 86.4402 205.711 86.3423 205.618 86.2242C205.526 86.1061 205.458 85.9705 205.42 85.8255C205.381 85.6805 205.373 85.5292 205.395 85.3809Z" fill="#E8878B"/>
<path d="M205.248 87.3574C205.28 87.0858 205.416 86.8373 205.628 86.6646C205.84 86.4919 206.111 86.4085 206.383 86.4323L209.369 86.6741C209.543 86.6806 209.713 86.7221 209.869 86.7962C210.026 86.8703 210.166 86.9753 210.281 87.105C210.396 87.2347 210.483 87.3864 210.538 87.5508C210.593 87.7153 210.614 87.8891 210.599 88.0619C210.545 88.3868 210.367 88.6779 210.102 88.874C209.837 89.0701 209.507 89.1559 209.18 89.1132L206.226 88.4929C206.087 88.4836 205.951 88.4468 205.826 88.3844C205.701 88.3221 205.59 88.2356 205.499 88.1299C205.408 88.0243 205.339 87.9015 205.296 87.7689C205.253 87.6363 205.237 87.4964 205.248 87.3574Z" fill="#E8878B"/>
<path d="M204.912 88.8609C204.943 88.6045 205.067 88.3684 205.261 88.1978C205.455 88.0271 205.705 87.9338 205.963 87.9357L208.244 88.3773C208.415 88.3862 208.581 88.4299 208.734 88.5055C208.887 88.5812 209.022 88.6873 209.132 88.8172C209.243 88.9472 209.325 89.0983 209.375 89.2613C209.425 89.4242 209.441 89.5957 209.422 89.7651C209.372 90.0822 209.203 90.3681 208.949 90.5638C208.694 90.7595 208.374 90.8499 208.055 90.8164L205.795 89.9858C205.533 89.9443 205.296 89.8053 205.132 89.5967C204.969 89.388 204.89 89.1252 204.912 88.8609Z" fill="#E8878B"/>
<path d="M211.504 85.1075L206.016 84.4977" stroke="#B73D46" stroke-width="0.3" stroke-miterlimit="10"/>
<path d="M210.326 87.2418L206.1 86.5479" stroke="#B73D46" stroke-width="0.3" stroke-miterlimit="10"/>
<path d="M209.18 89.1552L205.427 88.0723" stroke="#B73D46" stroke-width="0.3" stroke-miterlimit="10"/>
<path d="M125.765 177.154C126.742 177.392 127.738 177.547 128.741 177.617L130.843 177.722C133.997 177.722 137.404 177.385 140.306 177.354C145.457 177.354 150.619 177.186 155.771 176.923C156.199 176.902 156.627 176.963 157.033 177.101C157.255 177.063 157.48 177.042 157.706 177.038C158 177.042 158.293 177.08 158.578 177.154C159.283 159.134 154.247 121.947 154.247 121.947C154.247 121.947 128.488 87.6939 116.156 116.47C106.557 138.874 104.107 166.251 103.54 177.28C109.532 177.964 115.525 177.186 121.549 177.28L123.547 177.333C124.238 176.998 125.029 176.934 125.765 177.154Z" fill="#4D36B2"/>
<path d="M145.279 67.1503C145.279 67.1503 119.247 66.099 115.956 73.1746C112.665 80.2503 116.229 116.47 116.229 116.47C116.229 116.47 114.789 120.938 136.205 123.829C154.289 126.289 154.289 121.905 154.289 121.905C154.289 121.905 165.801 102.455 164.708 86.5584C163.614 70.6619 155.14 69.3897 155.14 69.3897L145.279 67.1503Z" fill="white"/>
<path d="M163.362 92.0675C163.362 92.0675 166.831 99.2903 162.311 103.38C160.466 109.894 157.78 116.139 154.32 121.958" stroke="black" stroke-width="0.3" stroke-miterlimit="10"/>
<path d="M143.754 74.2575C142.967 74.0401 142.234 73.6596 141.603 73.1406C140.973 72.6216 140.458 71.9758 140.093 71.2451C139.729 70.5144 139.522 69.7152 139.486 68.8992C139.45 68.0833 139.586 67.2689 139.885 66.509L144.995 53.4301C145.396 52.4227 146.152 51.5976 147.121 51.1111C148.09 50.6247 149.204 50.5109 150.251 50.7912C151.302 51.0829 152.206 51.7544 152.789 52.6752C153.371 53.5961 153.591 54.7007 153.406 55.7746L151.04 69.621C150.903 70.423 150.6 71.1875 150.149 71.8651C149.699 72.5428 149.112 73.1186 148.425 73.5554C147.739 73.9922 146.969 74.2803 146.164 74.4013C145.36 74.5222 144.539 74.4732 143.754 74.2575Z" fill="#E8878B"/>
<path d="M151.566 66.7719C151.566 66.7719 143.397 64.5009 144.08 55.7852H153.437L151.566 66.7719Z" fill="#D6656D"/>
<path d="M146.919 140.882C143.617 144.383 141.515 147.537 137.309 148.589C136.258 158.051 136.258 166.462 134.576 176.313" stroke="black" stroke-width="0.3" stroke-miterlimit="10"/>
<path d="M103.603 90.7323L91.7013 128.739C90.6499 131.956 91.4595 135.405 94.6346 136.529C96.2129 137.073 97.9423 136.969 99.4439 136.24C100.946 135.511 102.097 134.216 102.646 132.639L116.629 91.1634L103.603 90.7323Z" fill="#E8878B"/>
<path d="M110.132 110.119C110.132 110.119 103.424 111.823 98.0725 108.385L99.8073 102.844L111.656 105.704L110.132 110.119Z" fill="#D6656D"/>
<path d="M120.372 118.047L95.8646 124.355L99.2815 136.33L123.011 125.921C123.75 125.586 124.351 125.007 124.714 124.281C125.196 123.373 125.435 122.355 125.408 121.327C125.313 120.212 124.209 119.224 123.242 118.53C122.827 118.247 122.356 118.056 121.86 117.973C121.364 117.889 120.857 117.914 120.372 118.047Z" fill="#E8878B"/>
<path d="M120.004 70.0941C120.004 70.0941 101.542 75.2247 96.2642 105.399C96.2642 105.399 105.443 111.213 111.971 107.501C111.971 107.501 116.734 95.9365 120.141 91.1213" fill="white"/>
<path d="M116.135 98.281L120.141 91.1213" stroke="black" stroke-width="0.3" stroke-miterlimit="10"/>
<path d="M123.431 116.838C122.885 116.888 122.357 117.058 121.885 117.336C121.412 117.614 121.007 117.993 120.698 118.446L120.172 119.203C119.363 120.381 119.054 121.833 119.315 123.238C119.575 124.644 120.382 125.889 121.56 126.699L123.726 127.393C123.726 127.393 131.716 123.871 129.561 123.798C125.849 123.661 124.872 121.979 124.872 121.979" fill="#E8878B"/>
<path d="M121.518 126.163C121.518 126.163 132.031 125.595 130.023 124.67C122.874 121.253 127.773 120.58 127.773 120.58C128.892 120.467 129.989 120.198 131.033 119.781C131.109 119.741 131.177 119.685 131.232 119.618C131.287 119.55 131.327 119.473 131.352 119.39C131.376 119.307 131.384 119.219 131.374 119.133C131.365 119.047 131.338 118.963 131.295 118.888L131.18 118.688C131.114 118.564 131.025 118.455 130.916 118.367C130.808 118.278 130.683 118.212 130.549 118.173C129.214 117.752 127.9 117.353 125.986 116.596C125.477 116.396 124.931 116.312 124.386 116.348C123.84 116.385 123.31 116.541 122.832 116.806L122.022 117.258C121.398 117.6 120.848 118.063 120.404 118.619C119.96 119.176 119.631 119.815 119.435 120.499C119.24 121.183 119.182 121.9 119.265 122.607C119.348 123.314 119.571 123.997 119.92 124.618L121.518 126.163Z" fill="#E8878B"/>
<path d="M135.417 122.189C135.417 122.189 132.83 129.454 123.726 127.446L123.105 121.863L126.922 122.914C128.832 123.409 130.836 123.409 132.746 122.914L135.417 122.189Z" fill="#E8878B"/>
<path d="M137.898 119.14C137.917 119.051 137.914 118.959 137.889 118.872C137.864 118.785 137.817 118.706 137.753 118.641C137.69 118.576 137.611 118.528 137.524 118.502C137.438 118.475 137.346 118.47 137.257 118.488C136.891 118.576 136.549 118.744 136.256 118.981C135.963 119.217 135.727 119.516 135.564 119.855C134.513 121.642 133.987 123.009 131.6 123.913C129.214 124.817 126.533 125.543 126.533 125.543L128.635 126.815C128.635 126.815 132.473 126.91 134.944 124.954C136.805 123.451 137.625 120.444 137.898 119.14Z" fill="#E8878B"/>
<path d="M138.907 120.065C138.934 119.979 138.938 119.887 138.921 119.799C138.904 119.71 138.864 119.628 138.807 119.558C138.75 119.488 138.676 119.434 138.593 119.399C138.509 119.365 138.419 119.352 138.329 119.361C137.956 119.416 137.599 119.553 137.284 119.762C136.97 119.971 136.706 120.247 136.51 120.57C135.312 122.252 134.66 123.545 132.2 124.25C130.489 124.726 128.756 125.115 127.006 125.417L129.109 127.519C129.109 127.519 133.314 127.004 135.417 125.564C137.519 124.123 138.518 121.348 138.907 120.065Z" fill="#E8878B"/>
<path d="M105.779 121.81L103.96 123.598" stroke="black" stroke-width="0.3" stroke-miterlimit="10"/>
<path d="M149.389 33.5384C149.389 33.5384 163.141 31.7301 160.628 51.0751C159.02 63.376 149.558 62.2195 149.558 62.2195C149.558 62.2195 142.534 63.3549 138.981 48.9934C135.427 34.6318 149.389 33.5384 149.389 33.5384Z" fill="#E8878B"/>
<path d="M139.475 54.2712C141.571 54.2712 143.27 52.5719 143.27 50.4758C143.27 48.3796 141.571 46.6804 139.475 46.6804C137.379 46.6804 135.68 48.3796 135.68 50.4758C135.68 52.5719 137.379 54.2712 139.475 54.2712Z" fill="#E8878B"/>
<path d="M151.618 48.4256C151.618 48.4256 152.974 52.0107 153.616 52.5259C154.257 53.0411 152.417 53.3354 152.417 53.3354" stroke="#B73D46" stroke-width="0.3" stroke-miterlimit="10"/>
<path d="M152.165 56.6682C152.889 56.8095 153.634 56.7885 154.349 56.6067C155.063 56.4249 155.729 56.0869 156.297 55.6169" stroke="#B73D46" stroke-width="0.3" stroke-miterlimit="10"/>
<path d="M156.949 47.5215C157.413 47.5215 157.79 47.1449 157.79 46.6804C157.79 46.2159 157.413 45.8393 156.949 45.8393C156.484 45.8393 156.107 46.2159 156.107 46.6804C156.107 47.1449 156.484 47.5215 156.949 47.5215Z" fill="#070707"/>
<path d="M154.73 46.0916L154.352 45.8077C154.868 45.0943 155.61 44.5769 156.458 44.3401C157.306 44.1033 158.209 44.1611 159.02 44.5041L158.831 44.9351C158.119 44.6251 157.321 44.5709 156.574 44.7817C155.827 44.9925 155.175 45.4553 154.73 46.0916Z" fill="#070707"/>
<path d="M147.539 50.1604C148.003 50.1604 148.38 49.7838 148.38 49.3193C148.38 48.8548 148.003 48.4782 147.539 48.4782C147.074 48.4782 146.698 48.8548 146.698 49.3193C146.698 49.7838 147.074 50.1604 147.539 50.1604Z" fill="#070707"/>
<path d="M145.331 48.7305L144.942 48.4466C145.46 47.7323 146.204 47.2145 147.054 46.9777C147.903 46.741 148.808 46.7992 149.621 47.1429L149.421 47.574C148.711 47.2626 147.915 47.2078 147.169 47.4187C146.423 47.6297 145.773 48.0934 145.331 48.7305Z" fill="#070707"/>
<path d="M147.539 38.7005C148.731 39.7199 150.137 40.4565 151.654 40.8552C153.171 41.2539 154.758 41.3045 156.297 41.003C159.451 40.4458 160.733 44.2202 160.733 44.2202L160.86 30.7102L137.099 34.5897V46.0916L138.434 46.6803C138.833 44.5201 139.949 42.5575 141.601 41.1096C143.253 39.6617 145.345 38.8129 147.539 38.7005Z" fill="black"/>
<path d="M140.432 42.2647C140.432 42.2647 137.604 45.1454 140.432 47.5215C142.408 49.1826 140.905 57.1834 139.896 58.2874C139.896 58.2874 142.303 50.9279 139.896 48.741L137.057 46.1021C137.057 46.1021 135.543 39.447 140.432 42.2647Z" fill="black"/>
<path d="M135.711 419.156H69.444V436.104H135.711V419.156Z" fill="#1F627F"/>
<path d="M78.5487 426L71.0631 370.215C70.5693 367.162 71.1741 364.033 72.77 361.385C74.3658 358.736 76.8493 356.739 79.7788 355.748L97.0632 349.892C99.5993 349.038 102.336 348.98 104.906 349.724L122.432 354.823C125.402 355.687 127.969 357.575 129.678 360.153C131.387 362.73 132.128 365.829 131.769 368.901L127.784 426" fill="#55AAFF"/>
<path d="M100.648 360.837C99.5742 360.859 98.5073 360.656 97.5164 360.241C96.5256 359.826 95.6328 359.207 94.8957 358.426C94.1586 357.644 93.5936 356.717 93.2372 355.703C92.8807 354.69 92.7407 353.613 92.8262 352.542L94.3086 334.122C94.423 332.693 95.0639 331.358 96.1071 330.375C97.1503 329.392 98.5214 328.831 99.9544 328.802C101.39 328.768 102.786 329.269 103.872 330.207C104.959 331.146 105.657 332.455 105.831 333.88L108.102 352.205C108.235 353.272 108.142 354.354 107.831 355.383C107.519 356.411 106.995 357.363 106.292 358.177C105.59 358.99 104.725 359.647 103.752 360.105C102.78 360.564 101.723 360.813 100.648 360.837Z" fill="#E8878B"/>
<path d="M107.598 348.157C107.598 348.157 97.0842 349.892 94.0458 341.65L106.504 339.326L107.598 348.157Z" fill="#D6656D"/>
<path d="M99.3923 307.425L99.3818 307.425C92.584 307.572 87.1926 313.202 87.3397 320L87.58 331.1C87.7271 337.898 93.3571 343.289 100.155 343.142L100.165 343.142C106.963 342.995 112.355 337.365 112.208 330.567L111.967 319.467C111.82 312.669 106.19 307.278 99.3923 307.425Z" fill="#E8878B"/>
<path d="M99.3972 307.207C84.0579 307.543 87.4327 323.745 87.4327 323.745L87.5274 327.835H87.9584L89.0098 321.873C89.0982 321.057 89.3408 320.265 89.7247 319.539L91.2807 316.459C91.8489 315.39 92.8142 314.588 93.9685 314.224C95.1229 313.86 96.3739 313.964 97.4522 314.514C98.1036 314.845 98.824 315.018 99.5549 315.018C100.286 315.018 101.006 314.845 101.658 314.514L102.015 314.325C103.089 313.763 104.341 313.646 105.501 313.998C106.661 314.35 107.637 315.143 108.218 316.207L109.648 318.825C110.006 319.479 110.248 320.19 110.363 320.927L111.688 327.288H112.119L112.035 323.198C112.035 323.198 115.115 306.871 99.3972 307.207Z" fill="#070707"/>
<path d="M112.213 329.969C113.874 329.969 115.168 327.709 115.126 325.953C115.083 324.197 113.727 323.577 112.077 323.608L112.213 329.969Z" fill="#E8878B"/>
<path d="M113.811 325.627C113.468 325.9 113.198 326.255 113.025 326.659C112.853 327.062 112.783 327.503 112.823 327.94C113.127 327.719 113.501 327.618 113.874 327.656" stroke="#B73D46" stroke-width="0.5" stroke-miterlimit="10"/>
<path d="M87.5799 330.505C85.9187 330.505 84.5309 328.402 84.4889 326.615C84.4468 324.828 85.7821 324.186 87.4432 324.144L87.5799 330.505Z" fill="#E8878B"/>
<path d="M85.8872 326.237C86.2345 326.498 86.512 326.841 86.6954 327.235C86.8787 327.63 86.9622 328.063 86.9386 328.497C86.6267 328.297 86.2551 328.212 85.8872 328.255" stroke="#B73D46" stroke-width="0.5" stroke-miterlimit="10"/>
<path d="M75.6996 400.778L76.9612 378.962" stroke="black" stroke-width="0.3" stroke-miterlimit="10"/>
<path d="M131.148 397.319C131.148 397.319 112.655 399.548 110.615 400.473C108.576 401.398 107.734 392.83 94.2245 400.326C94.2245 400.326 75.0057 398.528 74.6482 399.59C74.2907 400.652 76.835 413.258 76.835 413.258L123.011 403.722L131.148 397.319Z" fill="#429EEA"/>
<path d="M126.428 422.331C126.428 422.331 106.988 422.057 102.057 420.028C97.1263 417.999 78.717 423.372 78.717 423.372L77.4343 415.581L105.895 409.157L126.606 419.198L126.428 422.331Z" fill="#429EEA"/>
<path d="M84.1104 400.158C84.1104 400.158 78.5908 399.874 74.5851 401.85C70.5794 403.827 74.7533 409.683 74.7533 409.683L82.0077 409.315L104.622 413.457L106.431 404.153L84.1104 400.158Z" fill="#E8878B"/>
<path d="M91.4699 401.482C91.4699 401.482 87.5063 406.487 90.0716 410.829L91.4699 411.081L94.214 402.029L91.4699 401.482Z" fill="#DD7A81"/>
<path d="M130.854 421.753L92.8052 413.605C92.4635 413.535 92.147 413.375 91.8896 413.139C91.6322 412.904 91.4435 412.603 91.3438 412.269C89.7142 406.865 93.3624 402.271 95.0656 400.505C95.2979 400.26 95.5891 400.08 95.9113 399.98C96.2335 399.881 96.5759 399.866 96.9055 399.937L128.93 406.76L126.165 377.9L122.338 354.823C139.854 359.912 139.265 371.256 139.265 371.256L144.364 416.338C144.473 417.292 144.355 418.259 144.02 419.159C143.686 420.059 143.144 420.867 142.438 421.519C141.732 422.17 140.883 422.646 139.959 422.908C139.035 423.169 138.062 423.209 137.12 423.025L130.854 421.753Z" fill="#55AAFF"/>
<path d="M128.93 406.876L113.159 410.545L102.467 415.655L106.284 416.464L126.259 411.008C127.095 410.783 127.824 410.268 128.315 409.555C128.806 408.843 129.028 407.979 128.94 407.118L128.93 406.876Z" fill="#429EEA"/>
<path d="M128.93 406.876L128.247 399.737C125.577 399.082 122.805 398.957 120.088 399.369L97.9464 404.321L100.165 413.541L122.58 408.421L128.93 406.876Z" fill="#E8878B"/>
<path d="M112.749 401.02C112.749 401.02 116.955 405.856 114.547 410.303L113.117 410.556L109.963 401.64L112.749 401.02Z" fill="#DD7A81"/>
<path d="M73.9964 422.983L111.656 413.184C111.994 413.098 112.303 412.923 112.551 412.677C112.799 412.431 112.976 412.123 113.065 411.786C114.453 406.319 110.615 401.892 108.859 400.221C108.616 399.989 108.317 399.823 107.991 399.739C107.666 399.654 107.324 399.654 106.999 399.737L75.2685 407.927L76.814 378.973L79.6316 355.748C62.3578 361.594 63.4407 372.906 63.4407 372.906L60.2866 418.115C60.2183 419.072 60.3769 420.032 60.7493 420.916C61.1218 421.8 61.6977 422.584 62.4302 423.204C63.1627 423.824 64.0311 424.262 64.9648 424.483C65.8986 424.704 66.8713 424.701 67.8039 424.476L73.9964 422.983Z" fill="#55AAFF"/>
<path d="M128.772 399.622L126.785 380.066" stroke="black" stroke-width="0.3" stroke-miterlimit="10"/>
<path d="M99.5234 327.614C99.5234 327.614 99.0923 332.639 98.472 333.523C97.8517 334.406 100.28 334.122 100.28 334.122" stroke="#B73D46" stroke-width="0.5" stroke-miterlimit="10"/>
<path d="M98.2512 337.686C99.2015 337.898 100.187 337.896 101.137 337.68C102.086 337.464 102.975 337.038 103.739 336.435" stroke="#B73D46" stroke-width="0.5" stroke-miterlimit="10"/>
<path d="M128.93 406.876C128.93 406.876 130.948 409.115 130.97 410.156" stroke="black" stroke-width="0.3" stroke-miterlimit="10"/>
<path d="M75.2685 407.927C74.7505 408.211 74.303 408.608 73.959 409.089C73.6151 409.569 73.3835 410.121 73.2814 410.703" stroke="black" stroke-width="0.3" stroke-miterlimit="10"/>
<path d="M101.962 401.009L94.277 403.007" stroke="black" stroke-width="0.3" stroke-miterlimit="10"/>
<path d="M106.21 327.94C106.808 327.94 107.293 327.455 107.293 326.857C107.293 326.259 106.808 325.774 106.21 325.774C105.612 325.774 105.127 326.259 105.127 326.857C105.127 327.455 105.612 327.94 106.21 327.94Z" fill="#070707"/>
<path d="M103.624 325.406L103.235 324.933C104.114 324.196 105.219 323.782 106.367 323.76C107.514 323.737 108.634 324.106 109.543 324.807L109.154 325.28C108.362 324.653 107.376 324.322 106.366 324.345C105.356 324.368 104.386 324.744 103.624 325.406Z" fill="#070707"/>
<path d="M93.5937 328.213C94.1918 328.213 94.6766 327.728 94.6766 327.13C94.6766 326.532 94.1918 326.047 93.5937 326.047C92.9956 326.047 92.5108 326.532 92.5108 327.13C92.5108 327.728 92.9956 328.213 93.5937 328.213Z" fill="#070707"/>
<path d="M91.0179 325.679L90.6288 325.206C91.5069 324.466 92.6124 324.05 93.7606 324.027C94.9088 324.004 96.03 324.376 96.937 325.08L96.5585 325.553C95.765 324.925 94.7771 324.594 93.7654 324.617C92.7538 324.64 91.782 325.016 91.0179 325.679Z" fill="#070707"/>
<path d="M113.349 304.463C113.349 304.463 120.372 318.131 111.982 319.466C111.982 319.466 102.877 314.724 93.6253 316.911C93.6253 316.911 90.3976 317.195 89.6722 319.529L89.567 314.272L99.3972 307.438C99.3972 307.438 101.185 303.37 100.364 302.581L113.349 304.463Z" fill="#070707"/>
<path d="M111.067 307.985C111.067 307.985 113.307 314.346 109.322 314.735" stroke="white" stroke-width="0.5" stroke-miterlimit="10"/>
<path d="M93.5937 332.524C96.5899 332.524 99.0187 330.095 99.0187 327.099C99.0187 324.103 96.5899 321.674 93.5937 321.674C90.5976 321.674 88.1687 324.103 88.1687 327.099C88.1687 330.095 90.5976 332.524 93.5937 332.524Z" stroke="#F9EAEC" stroke-width="0.5" stroke-miterlimit="10"/>
<path d="M106.21 332.524C109.206 332.524 111.635 330.095 111.635 327.099C111.635 324.103 109.206 321.674 106.21 321.674C103.214 321.674 100.785 324.103 100.785 327.099C100.785 330.095 103.214 332.524 106.21 332.524Z" stroke="#F9EAEC" stroke-width="0.5" stroke-miterlimit="10"/>
<path d="M99.0292 327.099H100.785" stroke="#F9EAEC" stroke-width="0.5" stroke-miterlimit="10"/>
<path d="M119.362 457.394C119.362 457.394 147.959 463.323 155.109 454.576C155.109 454.576 161.627 444.062 151.849 443.463L120.582 446.722" fill="white"/>
<path d="M125.976 458.498C134.881 459.665 149.989 460.6 154.888 454.576C154.888 454.576 161.406 444.062 151.629 443.474L131.085 445.576C131.054 446.06 130.486 457.709 125.976 458.498Z" fill="#1C3D4F"/>
<path d="M119.362 457.394L105.19 456.784C105.19 456.784 100.301 440.256 109.343 439.783L120.582 446.722" fill="#E8878B"/>
<path d="M112.655 441.855C112.655 441.855 117.007 452.705 109.764 457.394L102.614 456.553L106.757 438.185L112.655 441.855Z" fill="#D6656D"/>
<path d="M88.3158 452.736C88.3158 452.736 44.2324 446.828 35.6428 427.314C27.0532 407.801 39.7851 404.489 39.7851 404.489C50.4564 400.641 108.838 437.986 108.838 437.986C108.838 437.986 113.286 450.434 102.614 459.318L49.2684 434.726" fill="#346E94"/>
<path d="M95.5492 429.785C95.5492 429.785 81.8815 437.302 74.0384 446.144L84.184 450.823L98.8294 431.772L95.5492 429.785Z" fill="#1F627F"/>
<path d="M80.8092 457.394C80.662 457.394 77.939 457.993 74.0279 458.498C65.1334 459.665 50.0149 460.6 45.1155 454.576C45.1155 454.576 38.5971 444.062 48.3747 443.474L68.9183 445.576L79.6422 446.691" fill="white"/>
<path d="M80.8301 457.394L94.992 456.784C94.992 456.784 99.8808 440.256 90.8811 439.783L79.6421 446.722C79.6421 446.722 79.4844 447.122 79.2952 447.774" fill="#E8878B"/>
<path d="M87.8743 441.644C87.8743 441.644 84.9725 451.716 90.4291 456.553L97.3786 455.964L94.0142 438.185L87.8743 441.644Z" fill="#D6656D"/>
<path d="M150.924 434.726L97.5678 459.318C86.907 450.434 91.3438 437.986 91.3438 437.986C91.3438 437.986 149.736 400.641 160.408 404.489C160.408 404.489 173.15 407.749 164.55 427.314C155.95 446.88 111.856 452.736 111.856 452.736" fill="#346E94"/>
<path d="M146.424 436.798L126.596 449.761L113.906 451.79L146.424 436.798Z" fill="#1F627F"/>
<path d="M74.0279 458.498C65.1334 459.665 50.0149 460.6 45.1155 454.576C45.1155 454.576 38.5971 444.062 48.3747 443.474L68.9183 445.576C68.9498 446.06 69.5176 457.709 74.0279 458.498Z" fill="#1C3D4F"/>
<path d="M136.237 376.513H70.653C69.9853 376.513 69.444 377.054 69.444 377.722V419.829C69.444 420.496 69.9853 421.038 70.653 421.038H136.237C136.905 421.038 137.446 420.496 137.446 419.829V377.722C137.446 377.054 136.905 376.513 136.237 376.513Z" fill="#B8CAFC"/>
<path d="M135.995 421.038H70.8948C70.0935 421.038 69.444 421.687 69.444 422.489V422.867C69.444 423.668 70.0935 424.318 70.8948 424.318H135.995C136.796 424.318 137.446 423.668 137.446 422.867V422.489C137.446 421.687 136.796 421.038 135.995 421.038Z" fill="#D5E4EF"/>
<path d="M103.445 404.09C107.295 404.09 110.415 400.969 110.415 397.119C110.415 393.27 107.295 390.149 103.445 390.149C99.5952 390.149 96.4744 393.27 96.4744 397.119C96.4744 400.969 99.5952 404.09 103.445 404.09Z" fill="white"/>
<path d="M575.936 141.334C610.392 141.334 638.324 113.402 638.324 78.9465C638.324 44.4908 610.392 16.5589 575.936 16.5589C541.48 16.5589 513.548 44.4908 513.548 78.9465C513.548 113.402 541.48 141.334 575.936 141.334Z" fill="#B7EEF7"/>
<path d="M571.72 85.16L553.227 92.2252C550.093 93.4265 547.486 95.6995 545.87 98.6405C544.253 101.582 543.73 105 544.395 108.29L554.993 165.621C555.413 167.706 556.449 169.617 557.968 171.107C559.486 172.598 561.416 173.598 563.509 173.979L566.127 174.462C576.323 176.326 586.82 175.68 596.711 172.581L599.255 171.782C601.286 171.144 603.079 169.912 604.403 168.247C605.728 166.581 606.524 164.557 606.688 162.435L610.179 104.253C610.44 100.902 609.504 97.5682 607.539 94.8425C605.574 92.1168 602.706 90.1762 599.444 89.3655L580.352 87.1576C577.555 86.4532 574.433 84.1087 571.72 85.16Z" fill="#79C4BD"/>
<path d="M569.544 184.156C581.109 183.525 588.941 186.501 600.548 185.807C600.759 185.807 609.033 187.909 609.233 187.909L606.751 163.255C606.751 163.255 589.825 166.956 554.993 165.663L554.562 178.573C557.832 183.273 563.593 184.471 569.544 184.156Z" fill="#346E94"/>
<path d="M562.857 165.841C564.14 168.869 564.834 172.612 563.52 175.735" stroke="#5DABCE" stroke-width="0.3" stroke-miterlimit="10"/>
<path d="M576.083 96.8406C574.92 96.9121 573.754 96.7388 572.661 96.3318C571.569 95.9248 570.574 95.2932 569.741 94.4778C568.908 93.6624 568.255 92.6813 567.824 91.5979C567.394 90.5145 567.195 89.3529 567.241 88.188L568.051 68.1491C568.118 66.5942 568.757 65.1189 569.846 64.0069C570.934 62.8948 572.396 62.2245 573.949 62.1248C575.503 62.0334 577.035 62.5197 578.252 63.4901C579.469 64.4605 580.284 65.8465 580.541 67.3816L583.8 87.1681C583.991 88.3191 583.937 89.4972 583.644 90.6262C583.35 91.7552 582.822 92.8099 582.094 93.7218C581.367 94.6338 580.456 95.3827 579.42 95.9199C578.385 96.4572 577.248 96.7709 576.083 96.8406Z" fill="#E8878B"/>
<path d="M583.127 83.0573C583.127 83.0573 571.047 83.8038 567.904 71.7237L580.52 67.35L583.127 83.0573Z" fill="#D6656D"/>
<path d="M575.717 34.1565L568.759 34.5845C563.311 34.9196 559.167 39.6076 559.502 45.0554L560.67 64.0386C561.005 69.4864 565.693 73.6311 571.14 73.296L578.098 72.868C583.546 72.5329 587.69 67.8449 587.355 62.3971L586.188 43.4139C585.852 37.9661 581.164 33.8214 575.717 34.1565Z" fill="#E8878B"/>
<path d="M572.151 32.8549C555.529 33.9063 559.966 52.6205 559.966 52.6205L560.239 57.0572H560.712L561.532 50.5493C561.594 49.6584 561.826 48.7876 562.216 47.984L563.824 44.6302C564.396 43.4466 565.409 42.5346 566.645 42.0902C567.882 41.6459 569.244 41.7047 570.438 42.2541C571.165 42.5872 571.961 42.7419 572.76 42.7054C573.559 42.6688 574.338 42.442 575.032 42.0438L575.41 41.823C576.551 41.1668 577.904 40.9842 579.178 41.3145C580.452 41.6447 581.545 42.4615 582.223 43.5893L583.884 46.3649C584.296 47.0689 584.587 47.8363 584.746 48.6358L586.46 55.4697H586.933L586.66 50.9804C586.66 50.9804 589.183 31.8036 572.151 32.8549Z" fill="#070707"/>
<path d="M587.112 58.3084C588.91 58.1927 590.266 55.722 590.098 53.8296C589.93 51.9371 588.479 51.3063 586.681 51.422L587.112 58.3084Z" fill="#E8878B"/>
<path d="M588.658 53.5247C588.298 53.8372 588.021 54.2342 587.852 54.6801C587.683 55.126 587.627 55.6068 587.69 56.0795C587.99 55.8447 588.361 55.7187 588.742 55.722" stroke="#B73D46" stroke-width="0.3" stroke-miterlimit="10"/>
<path d="M560.376 59.9274C558.578 60.0326 556.97 57.7511 556.854 55.8481C556.738 53.9452 558.158 53.1462 559.955 53.041L560.376 59.9274Z" fill="#E8878B"/>
<path d="M558.389 55.3856C558.786 55.6513 559.111 56.0112 559.334 56.4332C559.558 56.8552 559.674 57.326 559.672 57.8037C559.327 57.5999 558.922 57.5219 558.526 57.5829" stroke="#B73D46" stroke-width="0.3" stroke-miterlimit="10"/>
<path d="M528.772 172.486L536.394 111.507C536.394 111.507 534.744 99.2903 553.216 92.2041L551.114 117.51L542.503 175.051L528.772 172.486Z" fill="#79C4BD"/>
<path d="M633.971 163.917L616.329 105.041C616.329 105.041 615.93 92.7193 596.522 88.7977L602.756 113.421L620.808 168.701L633.971 163.917Z" fill="#79C4BD"/>
<path d="M549.126 133.859L551.166 117.531" stroke="black" stroke-width="0.3" stroke-miterlimit="10"/>
<path d="M573.16 54.0188C573.16 54.0188 572.898 59.4859 572.246 60.4741C571.594 61.4624 574.233 61.0419 574.233 61.0419" stroke="#B73D46" stroke-width="0.3" stroke-miterlimit="10"/>
<path d="M570.658 65.6994C572.855 66.0405 575.1 65.9043 577.24 65.2999C577.24 65.2999 575.326 70.2833 570.658 65.6994Z" fill="white"/>
<path d="M608.665 131.651L601.663 112.611" stroke="black" stroke-width="0.3" stroke-miterlimit="10"/>
<path d="M579.395 54.7022C580.016 54.7022 580.52 54.1985 580.52 53.5772C580.52 52.9559 580.016 52.4523 579.395 52.4523C578.774 52.4523 578.27 52.9559 578.27 53.5772C578.27 54.1985 578.774 54.7022 579.395 54.7022Z" fill="#070707"/>
<path d="M576.693 52.1053L576.283 51.6112C577.188 50.8448 578.326 50.407 579.511 50.3688C580.696 50.3306 581.86 50.6944 582.812 51.4009L582.412 51.9055C581.584 51.2701 580.56 50.9426 579.517 50.9791C578.474 51.0155 577.475 51.4137 576.693 52.1053Z" fill="#070707"/>
<path d="M566.243 55.1438C566.864 55.1438 567.368 54.6401 567.368 54.0188C567.368 53.3975 566.864 52.8939 566.243 52.8939C565.621 52.8939 565.118 53.3975 565.118 54.0188C565.118 54.6401 565.621 55.1438 566.243 55.1438Z" fill="#070707"/>
<path d="M563.53 52.5679L563.12 52.0843C564.025 51.318 565.163 50.8801 566.348 50.842C567.533 50.8038 568.697 51.1675 569.649 51.874L569.249 52.3787C568.421 51.7438 567.399 51.4156 566.356 51.4501C565.313 51.4846 564.314 51.8797 563.53 52.5679Z" fill="#070707"/>
</svg>
