<svg width="99" height="88" viewBox="0 0 99 88" fill="none" xmlns="http://www.w3.org/2000/svg">
<path d="M96.0743 46.871H3.81631C3.05488 46.871 2.32463 47.1735 1.78621 47.7119C1.24779 48.2503 0.945313 48.9806 0.945312 49.742C0.945313 50.5034 1.24779 51.2337 1.78621 51.7721C2.32463 52.3105 3.05488 52.613 3.81631 52.613H44.5803L24.5883 82.603C24.3003 83.0355 24.135 83.538 24.11 84.057C24.085 84.576 24.2013 85.092 24.4465 85.5501C24.6917 86.0083 25.0565 86.3913 25.5022 86.6584C25.9479 86.9255 26.4577 87.0668 26.9773 87.067H72.9143C73.4339 87.0668 73.9437 86.9255 74.3894 86.6584C74.8351 86.3913 75.1999 86.0083 75.4451 85.5501C75.6903 85.092 75.8066 84.576 75.7816 84.057C75.7566 83.538 75.5913 83.0355 75.3033 82.603L55.3113 52.613H96.0743C96.8357 52.613 97.566 52.3105 98.1044 51.7721C98.6428 51.2337 98.9453 50.5034 98.9453 49.742C98.9453 48.9806 98.6428 48.2503 98.1044 47.7119C97.566 47.1735 96.8357 46.871 96.0743 46.871V46.871Z" fill="#21205C"/>
<path d="M78.8505 41.133C82.8259 41.133 86.712 39.9541 90.0175 37.7455C93.3229 35.5369 95.8991 32.3977 97.4205 28.7249C98.9418 25.0521 99.3398 21.0107 98.5643 17.1117C97.7887 13.2127 95.8744 9.63118 93.0633 6.82015C90.2523 4.00911 86.6708 2.09477 82.7718 1.31921C78.8728 0.543645 74.8313 0.941693 71.1585 2.46301C67.4857 3.98434 64.3466 6.5606 62.1379 9.86603C59.9293 13.1715 58.7505 17.0576 58.7505 21.033C58.7558 26.3622 60.8752 31.4717 64.6435 35.24C68.4118 39.0083 73.5213 41.1277 78.8505 41.133V41.133ZM75.9795 15.293C75.9795 14.5316 76.282 13.8013 76.8204 13.2629C77.3588 12.7245 78.0891 12.422 78.8505 12.422C79.6119 12.422 80.3422 12.7245 80.8806 13.2629C81.419 13.8013 81.7215 14.5316 81.7215 15.293V18.164H84.5925C85.3539 18.164 86.0842 18.4665 86.6226 19.0049C87.161 19.5433 87.4635 20.2736 87.4635 21.035C87.4635 21.7964 87.161 22.5267 86.6226 23.0651C86.0842 23.6035 85.3539 23.906 84.5925 23.906H78.8505C78.0891 23.9057 77.359 23.6032 76.8207 23.0648C76.2823 22.5264 75.9798 21.7963 75.9795 21.035V15.293Z" fill="#21205C"/>
<path d="M20.9453 18C25.3636 18 28.9453 14.1944 28.9453 9.5C28.9453 4.80558 25.3636 1 20.9453 1C16.527 1 12.9453 4.80558 12.9453 9.5C12.9453 14.1944 16.527 18 20.9453 18Z" fill="#21205C"/>
<path d="M9.75039 41.129H32.7194C33.4807 41.1287 34.2108 40.8262 34.7492 40.2878C35.2876 39.7495 35.5901 39.0194 35.5904 38.258V32.516C35.5588 28.7294 34.0324 25.1087 31.3437 22.4423C28.6549 19.7759 25.0216 18.2798 21.2349 18.2798C17.4482 18.2798 13.8149 19.7759 11.1261 22.4423C8.43737 25.1087 6.911 28.7294 6.87939 32.516V38.26C6.88019 39.021 7.18299 39.7506 7.72129 40.2885C8.25959 40.8265 8.98938 41.1287 9.75039 41.129V41.129Z" fill="#21205C"/>
</svg>
